<svg width="214" height="34" viewBox="0 0 214 34" fill="none" xmlns="http://www.w3.org/2000/svg">
<g clip-path="url(#clip0_97_11)">
<path d="M39.39 13.2C36.99 13.2 34.96 15.02 32.39 18.52C31.21 20.16 29.69 22.52 29.02 23.52C28.64 24.03 28.34 23.95 28.55 23.4L30.33 18.84L36.69 1.33997C37 0.619971 34.46 -0.250029 34 0.619971V0.709971C32.91 3.02997 30.88 3.78997 27.25 3.65997C23.62 3.52997 16.32 1.51997 10.8 1.51997C3.88 1.51997 0 5.77997 0 10.8C0 13.62 1.85 15.44 4.34 15.35C4.89359 15.3954 5.44461 15.2362 5.88874 14.9027C6.33288 14.5691 6.6393 14.0843 6.75 13.54C6.8039 13.3295 6.79967 13.1084 6.73775 12.9002C6.67582 12.6919 6.55854 12.5044 6.3984 12.3576C6.23826 12.2108 6.04127 12.1103 5.82846 12.0666C5.61564 12.023 5.39497 12.038 5.19 12.11C2.74 12.62 1.9 10.93 1.9 9.61997C1.9 6.49997 4.56 4.17997 10.12 4.17997C11.55 4.17997 14.34 4.51997 17.29 4.84997C13.54 16.15 9.74 26.62 8.81 29.1C8.72266 29.4334 8.55344 29.7398 8.31769 29.9912C8.08194 30.2427 7.78712 30.4313 7.46 30.54C6.12 30.96 5.69 31 4.85 31.21C3.58 31.51 3.79 32.56 4.68 32.52C6.28 32.43 8.35 32.22 9.99 32.22C11.99 32.22 15.6 32.39 16.15 32.43C17.15 32.52 17.29 31.29 16.45 31.17C15.86 31.08 14.89 30.92 13.96 30.79C12.86 30.66 12.53 30.2 12.78 29.31C13.33 27.84 19.78 9.19997 21.05 5.30997C23.05 5.55997 24.76 5.72997 25.89 5.80997C28.22 5.94997 30.46 5.80997 32.39 4.39997L27.29 18.8L22.82 31.13C22.06 33.13 24.92 33.28 25.56 32.06C27.731 27.7215 30.2845 23.5851 33.19 19.7C35.05 17 36.78 15.39 38 15.39C38.93 15.39 39.47 15.9 39.47 17.04C39.47 18.56 38.76 20.92 37.32 24.93C35.43 30.16 34.71 31.55 34.08 31.59C33.45 31.63 32.22 30.07 31.55 29.9C31.2343 29.8047 30.895 29.8249 30.5927 29.9568C30.2904 30.0887 30.0449 30.3237 29.9 30.62C29.56 31.21 29.78 33.11 32.64 33.24C36.06 33.4 38.97 29.9 40.99 24.3C42.38 20.5 42.72 18.56 42.72 17.17C42.72 14.47 41.46 13.2 39.39 13.2ZM97.29 31.29C95.14 30.79 94.29 29.99 94.29 29.14L94.38 27.37C94.38 26.07 95.38 6.87997 95.6 4.00997C95.77 1.89997 93.36 2.00997 92.35 3.24997L90.35 5.81997C87.89 8.89997 78 21.68 73.17 27.67C71.8127 29.3205 70.0225 30.5601 68 31.25C67.2 31.46 67.28 32.31 68.17 32.31C68.88 32.31 70.99 32.06 72.55 32.06C74.11 32.06 76.98 32.18 77.7 32.22C78.42 32.26 78.7 31.46 77.7 31.22C75.7 30.63 74.7 30.22 74.7 29.7C74.7 29.18 75.16 28.48 76.26 26.96C77.1 25.78 79.12 23.12 81.36 20.17H91C90.79 24.22 90.54 28.48 90.5 29.32C90.5046 29.5892 90.4137 29.8514 90.2435 30.0601C90.0733 30.2687 89.8347 30.4104 89.57 30.46L87.42 31.09C86.83 31.26 86.57 32.36 87.5 32.32C89.61 32.19 91.38 32.02 92.31 32.02C93.7 32.02 96.06 32.32 97.16 32.36C98.26 32.4 98.1 31.51 97.29 31.29ZM91.29 15.82C91.29 16.58 91.2 17.42 91.16 18.31H82.91C86.75 13.24 90.8 7.92997 91.14 7.41997C91.48 6.90997 91.81 7.16997 91.77 7.54997C91.64 9.40997 91.43 12.82 91.27 15.82H91.29ZM55.08 13.5C51.41 13.33 47.32 17.59 45.38 24C43.48 30.2 45.59 32.77 47.91 32.77C49.6 32.77 52.42 30.58 53.98 28.05C54.53 27.16 54.11 26.23 53.27 27.16C52.21 28.3 50.78 29.52 49.27 29.23C48.27 29.06 47.33 27.33 48.81 23.03C52.35 22.86 56.52 20.84 57.58 17.5C58.5 14.62 56.6 13.54 55.08 13.5ZM55.46 16.62C54.57 19.23 51.46 21.42 49.22 21.97C51.37 16.28 53.43 14.76 54.74 14.8C55.46 14.8 55.8 15.62 55.46 16.62ZM109.4 15.62H112.82C113.58 15.62 113.96 15.41 114.12 14.86C114.42 14.14 114.25 13.8 113.49 13.8H110.07L111.72 9.41997C111.93 8.82997 111.72 8.52997 111.38 8.52997H109.61C109.15 8.52997 108.98 8.65997 108.77 9.24997L107 13.83H104.3C103.92 13.83 103.62 13.75 103.37 14.89C103.28 15.44 103.37 15.65 103.92 15.65H106.32L102.23 26.32C101.582 27.8481 101.018 29.4104 100.54 31C100.29 32.48 101.18 33.07 102.27 32.86C104.42 32.48 107.5 30.24 110.27 26.74C111.03 25.74 110.4 25.1 109.64 25.9C108.492 27.0382 107.266 28.0942 105.97 29.06C104.87 29.78 104.33 29.27 104.71 28.22L109.4 15.62ZM147.44 14.62C147.69 14.03 146.85 13.86 144.91 13.49C144.32 13.36 143.98 13.99 142.97 16.1C142.55 15.5915 142.01 15.1948 141.4 14.9453C140.789 14.6958 140.126 14.6012 139.47 14.67C136.39 14.75 132.59 17.53 129.47 21.79C126.98 25.21 126.22 27.57 126.69 30.1C126.828 30.8138 127.212 31.4567 127.774 31.9171C128.337 32.3775 129.043 32.6262 129.77 32.62C132.09 32.7 134.41 30.51 136.77 28.1L138.25 26.62C138.67 26.2 139.05 26.45 138.79 26.96C138.027 28.2859 137.394 29.6824 136.9 31.13C136.6 32.61 137.4 32.99 138.54 32.82C140.73 32.53 144.15 30.5 146.77 26.88C147.52 25.82 146.77 25.23 146.09 26.03C144.946 27.2416 143.69 28.3431 142.34 29.32C141.2 30.08 140.69 29.87 141.03 28.98C141.2 28.43 141.83 26.91 147.44 14.62ZM137.7 25.62C135.04 28.07 132.89 29.84 131.41 29.84C130.41 29.84 129.94 29.41 129.85 28.7C129.6 26.84 131.29 24.02 132.68 22.12C135.08 18.96 138.04 16.34 139.93 16.34C141.24 16.34 141.93 16.89 142.04 17.69C142.29 19.15 139.85 23.62 137.7 25.56V25.62ZM196.28 12.91C194.21 12.91 191.43 14.38 188.81 17.29C187.97 18.29 188.6 18.94 189.4 18.22C190.29 17.4061 191.25 16.6732 192.27 16.03C193.16 15.48 193.75 15.9 193.49 16.7C193.28 17.34 192.65 18.9 192.19 19.95L189.32 26.53C188.52 28.39 187.76 30.24 187.59 30.75C187.21 32.06 187.88 32.75 188.94 32.75C190.94 32.75 193.71 31.1 196.36 28.15C197.2 27.15 196.57 26.51 195.77 27.22C194.788 28.0922 193.745 28.8942 192.65 29.62C191.77 30.16 191.13 29.74 191.43 28.94C191.64 28.35 192.27 27 192.69 26.03L195.6 19.45C196.45 17.51 197.42 15.45 197.6 14.9C197.92 13.62 197.29 12.91 196.28 12.91ZM198.81 2.69997C198.192 2.66068 197.583 2.86288 197.111 3.26395C196.639 3.66501 196.341 4.23363 196.28 4.84997C196.229 5.13376 196.237 5.42505 196.304 5.70552C196.371 5.98599 196.495 6.24957 196.669 6.47968C196.843 6.7098 197.062 6.90147 197.314 7.04263C197.565 7.1838 197.843 7.27142 198.13 7.29997C198.733 7.32007 199.322 7.11521 199.782 6.72522C200.242 6.33523 200.541 5.788 200.62 5.18997C200.679 4.90617 200.678 4.6132 200.617 4.32985C200.556 4.04651 200.436 3.77903 200.266 3.54459C200.095 3.31014 199.878 3.1139 199.627 2.96845C199.376 2.823 199.098 2.73156 198.81 2.69997ZM210.49 13.54C206.78 13.37 202.81 17.67 200.87 24C198.93 30.33 201.04 32.77 203.49 32.77C205.18 32.77 208 30.77 209.69 28.05C210.24 27.16 209.82 26.23 208.97 27.16C207.92 28.3 206.57 29.35 205.18 29.27C203.79 29.19 202.81 27.27 204.42 22.65C206.78 15.99 208.42 15.23 209.14 15.18C209.86 15.13 211.33 17.04 212.22 17.25C212.533 17.3496 212.872 17.3327 213.173 17.2022C213.474 17.0716 213.718 16.8364 213.86 16.54C214.24 15.82 214 13.71 210.49 13.54ZM186.54 13.83H183.12L184.76 9.44997C184.98 8.85997 184.76 8.55997 184.43 8.55997H182.65C182.19 8.55997 182.02 8.68997 181.81 9.27997L180.08 13.83H177.34C176.96 13.83 176.67 13.75 176.41 14.89C176.33 15.44 176.46 15.65 176.96 15.65H179.37L175.28 26.32C174.628 27.8463 174.063 29.4089 173.59 31C173.33 32.48 174.22 33.07 175.32 32.86C177.47 32.48 180.55 30.24 183.32 26.74C184.08 25.74 183.45 25.1 182.68 25.9C181.529 27.0388 180.3 28.0947 179 29.06C177.9 29.78 177.35 29.27 177.73 28.22L182.44 15.62H185.86C186.62 15.62 187 15.41 187.17 14.86C187.46 14.17 187.29 13.83 186.54 13.83ZM122.94 25.73C121.744 26.9185 120.475 28.0307 119.14 29.06C118.04 29.78 117.5 29.27 117.88 28.22L128.17 0.969971C128.34 0.549971 128.25 -0.0300293 127.66 -0.0300293C125.65 0.0933737 123.647 0.320342 121.66 0.649971C121.32 0.729971 121.15 1.23997 121.53 1.35997L123.81 2.20997C124.27 2.37997 124.32 2.58997 124.02 3.34997L115.18 26.32C114.528 27.8463 113.963 29.4089 113.49 31C113.24 32.48 114.12 33.07 115.22 32.86C117.5 32.48 120.74 30.24 123.57 26.57C124.33 25.56 123.7 24.93 122.94 25.73ZM166.33 25.81L168.82 20.81C170.17 18.07 170.43 16.81 170.43 15.88C170.43 14.07 169.5 13.14 167.6 13.14C164.94 13.14 162.83 15.25 159.6 19.8C158.71 21.02 158.12 21.95 156.94 23.47C156.56 23.94 156.27 23.89 156.48 23.34L158.12 19.25C158.773 17.8292 159.228 16.325 159.47 14.78C159.47 13.69 159.01 13.18 157.83 13.18C156.39 13.18 154.58 13.94 151.42 17.95C150.28 19.42 151.42 19.59 151.8 19.13C152.43 18.49 153.8 17.06 154.71 16.26C155.62 15.46 156.43 15.71 156.1 16.68C155.882 17.4431 155.615 18.1914 155.3 18.92L150.3 31.19C149.62 32.88 152.83 33.26 153.38 31.99C155.11 27.99 158.9 22.99 160.46 20.77C162.74 17.52 164.72 15.29 166.15 15.29C166.91 15.29 167.25 15.71 167.25 16.51C167.175 17.2067 166.975 17.8842 166.66 18.51L163.12 26.06C162.12 28.06 161.18 30.19 161.01 30.74C160.59 32.05 161.31 32.74 162.44 32.74C164.44 32.74 167.21 31.09 169.87 28.14C170.71 27.14 170.08 26.5 169.28 27.21C168.296 28.0831 167.253 28.8883 166.16 29.62C165.24 30.21 164.6 29.74 164.9 28.9C165.11 28.3 165.87 26.74 166.33 25.81Z" fill="#C9C0BD"/>
</g>
<defs>
<clipPath id="clip0_97_11">
<rect width="214" height="33.24" fill="white"/>
</clipPath>
</defs>
</svg>
