<svg width="88" height="134" viewBox="0 0 88 134" fill="none" xmlns="http://www.w3.org/2000/svg">
<g clip-path="url(#clip0_97_13)">
<path d="M24.48 95.13C23.92 95.13 23.74 94.76 23.74 94.2L36.82 38.32C37.01 37.38 37.75 37.38 37.94 38.32L50.09 94.2C50.09 94.76 49.9 95.13 49.34 95.13H24.48ZM48.22 0.189994C46.0399 2.38069 43.4326 4.09962 40.56 5.23999C39.81 5.42999 39.62 5.60999 39.43 6.35999L12.71 118.86C10.71 127.86 8.04002 129.52 0.940021 130.08C0.815183 130.071 0.689913 130.089 0.572572 130.133C0.455232 130.176 0.348519 130.244 0.259557 130.332C0.170594 130.42 0.101427 130.526 0.0566723 130.643C0.0119175 130.76 -0.00739587 130.885 2.10881e-05 131.01V133.07C-0.00712461 133.193 0.0116985 133.316 0.0552693 133.432C0.09884 133.547 0.166185 133.652 0.252935 133.74C0.339685 133.828 0.443902 133.896 0.558824 133.941C0.673746 133.986 0.796807 134.006 0.920021 134H26.52C26.6441 134.007 26.7682 133.988 26.8843 133.944C27.0005 133.9 27.1059 133.832 27.1938 133.744C27.2816 133.656 27.3499 133.55 27.3941 133.434C27.4382 133.318 27.4573 133.194 27.45 133.07V131C27.4573 130.876 27.4382 130.752 27.3941 130.636C27.3499 130.52 27.2816 130.414 27.1938 130.326C27.1059 130.238 27.0005 130.17 26.8843 130.126C26.7682 130.082 26.6441 130.063 26.52 130.07C16.99 130.07 16.05 127.26 17.92 119.41L22.41 100.16C22.4658 99.9021 22.6065 99.6703 22.8095 99.5017C23.0125 99.3331 23.2662 99.2374 23.53 99.23H50.27C50.5351 99.237 50.7902 99.3323 50.9949 99.5007C51.1996 99.6692 51.3422 99.9013 51.4 100.16L56.4 123.34C57.52 128.34 55.65 129.51 49.3 130.07C49.176 130.063 49.0518 130.082 48.9357 130.126C48.8196 130.17 48.7141 130.238 48.6263 130.326C48.5384 130.414 48.4702 130.52 48.426 130.636C48.3818 130.752 48.3627 130.876 48.37 131V133.06C48.3627 133.184 48.3818 133.308 48.426 133.424C48.4702 133.54 48.5384 133.646 48.6263 133.734C48.7141 133.822 48.8196 133.89 48.9357 133.934C49.0518 133.978 49.176 133.997 49.3 133.99H86.92C87.0449 133.999 87.1701 133.981 87.2875 133.937C87.4048 133.894 87.5115 133.826 87.6005 133.738C87.6894 133.65 87.7586 133.544 87.8034 133.427C87.8481 133.31 87.8674 133.185 87.86 133.06V131C87.8674 130.875 87.8481 130.75 87.8034 130.633C87.7586 130.516 87.6894 130.41 87.6005 130.322C87.5115 130.234 87.4048 130.166 87.2875 130.123C87.1701 130.079 87.0449 130.061 86.92 130.07C81.13 129.51 78.7 128.57 77.58 123.34L49.34 0.569994C49.15 0.00999421 48.59 -0.180006 48.22 0.189994Z" fill="#C9C0BD"/>
</g>
<defs>
<clipPath id="clip0_97_13">
<rect width="87.83" height="134" fill="white"/>
</clipPath>
</defs>
</svg>
