<svg width="825" height="116" viewBox="0 0 825 116" fill="none" xmlns="http://www.w3.org/2000/svg">
<path d="M433.455 97.7876C422.958 96.3034 411.908 89.2361 406.519 80.5592C401.838 73.0234 399.95 65.3634 400.387 55.6742C401.233 36.8898 411.328 23.8106 429.222 18.3135C432.995 17.1546 444.043 16.7217 449.075 17.5358C461.935 19.6165 472.356 27.0193 477.68 37.8578C481.06 44.7393 481.924 48.7298 481.913 57.4134C481.906 63.091 481.684 65.7337 481.005 68.194C477.611 80.4967 470.819 88.8505 459.955 94.0855C457.481 95.2774 454.108 96.6181 452.459 97.0648C448.974 98.0087 437.976 98.427 433.455 97.7876ZM446.603 79.9722C448.33 79.5638 450.608 78.7866 451.666 78.2451C455.961 76.046 460.327 70.0265 461.673 64.4451C462.004 63.0727 462.275 60.0212 462.275 57.6641C462.275 52.5381 461.572 49.3504 459.613 45.588C455.575 37.8338 450.086 34.5985 440.966 34.5985C430.839 34.5985 424.198 39.4673 421.179 49.1037C419.174 55.5039 419.936 64.7936 422.878 69.8238C427.963 78.5181 436.79 82.2938 446.603 79.9722ZM290.8 97.4248C287.46 96.8454 282.741 95.1086 279.871 93.4025C263.698 83.7881 261.046 57.4676 274.864 43.6933C280.364 38.2098 286.471 35.6219 294.86 35.2189C301.065 34.9209 305.08 35.8767 309.914 38.803L312.788 40.5425V38.3227V36.1028H321.283H329.778V66.439V96.7752H321.533H313.287V94.1807V91.5862L312.163 92.5762C307.877 96.3502 303.431 97.8136 296.567 97.7098C294.082 97.6722 291.487 97.544 290.8 97.4248ZM304.67 80.2907C312.48 76.293 314.73 63.9908 309.024 56.4921C306.403 53.0476 303.052 51.4657 298.296 51.4271C289.475 51.3556 284.171 56.9772 284.13 66.439C284.116 69.6965 284.351 70.9688 285.379 73.2082C287.271 77.3288 290.573 80.2406 294.548 81.2951C296.996 81.9445 302.508 81.3976 304.67 80.2907ZM514.174 97.0532C511.101 96.1853 508.405 95 506.65 93.746L505.18 92.6955V94.7354V96.7752H496.684H488.189V55.4077V14.0401H497.184H506.179V26.981V39.922L510.052 38.0084C514.441 35.84 517.727 35.0961 522.863 35.1086C536.814 35.1427 547.353 43.2305 550.95 56.6612C552.141 61.1112 552.175 70.8007 551.015 75.1085C547.876 86.7587 539.417 94.9296 528.285 97.067C523.808 97.9265 517.243 97.9198 514.174 97.0532ZM524.453 80.9947C527.941 79.9505 530.344 77.7463 532.267 73.8274C533.76 70.7828 533.909 70.0736 533.861 66.1985C533.8 61.2353 532.782 58.4068 529.912 55.2187C525.033 49.8 514.949 49.8098 509.856 55.2382C504.826 60.5988 504.291 70.0829 508.681 76.0655C512.115 80.7466 518.557 82.7598 524.453 80.9947ZM627.861 96.9873C616.828 94.5443 608.142 86.0968 605.439 75.1819C604.393 70.96 604.365 62.4002 605.384 58.3962C609.55 42.0246 626.011 32.1212 642.754 35.915C654.492 38.5749 663.551 47.8804 666.246 60.0479C666.556 61.4455 666.228 61.5256 658.593 61.9195C655.433 62.0825 651.907 62.3432 650.758 62.4987C648.687 62.7793 648.665 62.7659 648.086 60.8252C645.329 51.5919 633.431 48.4598 626.696 55.1946C623.51 58.3811 622.863 60.2777 622.863 66.439C622.863 71.1643 623.021 72.2505 623.964 74.0188C626.76 79.263 630.204 81.4052 635.856 81.4149C641.563 81.4244 645.435 78.6276 647.562 72.9575L648.503 70.4504L655.922 70.5805C660.002 70.6521 664.043 70.8262 664.902 70.9675L666.463 71.2243L665.985 73.5952C665.269 77.1453 661.458 84.6501 658.895 87.5577C655.833 91.0315 650.609 94.5161 646.089 96.1003C641.319 97.7721 633.191 98.1676 627.861 96.9873ZM784.059 97.0284C773.29 94.587 765.145 86.6242 762.179 75.6353C761.572 73.3882 761.329 70.6182 761.348 66.1882C761.371 60.7833 761.561 59.3532 762.721 55.8013C764.309 50.9391 768.059 45.0482 771.429 42.122C776.538 37.6848 783.987 35.1253 791.841 35.1085C796.684 35.0979 800.977 36.2918 805.136 38.8057L808.009 40.5422V38.3224V36.1026H816.505H825V66.4389V96.7751H816.755H808.509V94.2688V91.7625L806.079 93.5146C801.579 96.7581 799.392 97.4437 793.018 97.6082C789.286 97.7046 786.145 97.5013 784.059 97.0284ZM797.954 80.9519C801.293 79.957 804.092 77.4248 805.871 73.79C807.078 71.3227 807.26 70.3617 807.257 66.4389C807.252 61.1575 806.272 58.4615 803.245 55.4242C800.376 52.5449 797.475 51.4091 793.018 51.4192C788.566 51.4293 785.454 52.7065 782.973 55.5414C780.257 58.6456 779.314 61.3782 779.293 66.1987C779.277 70.0272 779.445 70.8162 780.903 73.7885C784.143 80.3921 790.654 83.1273 797.954 80.9519ZM219.723 96.447C216.584 95.3647 213.612 92.7363 211.949 89.5735L210.595 86.9972L210.345 69.1967L210.095 51.3961L207.472 51.2445L204.848 51.093V43.624V36.155L207.472 36.0035L210.095 35.8519L210.239 31.2137L210.383 26.5755H219.359H228.335V31.3391V36.1026H232.333H236.331V43.624V51.1453H232.333H228.335V64.6559C228.335 77.9453 228.354 78.1878 229.459 79.4733C230.344 80.5017 231.196 80.843 233.457 81.0756L236.331 81.3711V88.7928C236.331 94.1794 236.159 96.3256 235.706 96.6201C235.362 96.8432 232.158 97.0791 228.585 97.1444C223.642 97.2346 221.523 97.0679 219.723 96.447ZM349.267 96.5792C342.226 95.0083 337.857 90.4033 336.03 82.6256C334.649 76.7486 333.953 77.2195 344.02 77.2195C352.503 77.2195 352.765 77.2505 352.765 78.2472C352.765 81.4014 355.721 83.5761 359.344 83.0884C361.959 82.7366 363.428 81.3092 363.367 79.1791C363.302 76.8817 362.009 75.8534 358.008 74.9201C349.271 72.8814 345.325 71.1964 341.927 68.053C339.121 65.458 337.496 62.2867 336.74 57.9305C335.622 51.4856 337.118 46.2047 341.227 42.0911C345.771 37.5415 351.065 35.6012 358.931 35.6012C371.059 35.6012 378.459 41.2179 379.674 51.3447L380.071 54.6553H371.728H363.384L363.082 53.1382C362.613 50.7861 360.666 49.1396 358.352 49.1396C355.68 49.1396 353.765 50.6887 353.765 52.8493C353.765 55.5512 355.316 56.5112 361.892 57.8796C371.346 59.8467 377.026 63.282 379.281 68.3963C381.357 73.1061 381.326 81.7942 379.215 86.7173C377.317 91.1459 372.307 94.8214 365.9 96.4874C362.272 97.4306 353.305 97.4801 349.267 96.5792ZM569.134 96.7566C565.838 95.9709 562.712 94.3331 560.748 92.3625C557.697 89.3004 555.196 83.2453 555.164 78.8372L555.152 77.1958L563.754 77.333L572.355 77.4702L572.788 79.309C573.375 81.7997 574.678 82.8422 577.509 83.0869C580.814 83.3724 583.136 81.9311 583.136 79.5948C583.136 76.761 582.095 75.9066 577.251 74.7656C566.672 72.2734 562.274 69.8975 558.984 64.8971C555.878 60.1759 555.348 51.8342 557.812 46.4342C560.904 39.6562 568.583 35.6201 578.409 35.6071C590.791 35.5906 598.58 41.5341 599.499 51.701L599.766 54.6553H591.513H583.261L582.98 53.2454C582.5 50.8401 581.084 49.5684 578.567 49.2838C574.541 48.8285 572.468 51.064 573.846 54.3737C574.648 56.2997 575.474 56.6494 582.739 58.1408C592.344 60.1124 598.134 64.4213 599.881 70.8993C601.043 75.2054 600.72 82.9104 599.237 86.2967C597.141 91.0825 592.178 94.8496 585.812 96.4868C582.492 97.3407 572.278 97.506 569.134 96.7566ZM686.458 96.4953C678.755 94.622 674.063 89.6451 671.851 81.0002C671.224 78.5506 671.086 74.2325 671.086 57.0571V36.1026H680.081H689.076V55.6743C689.076 77.3429 689.155 77.9611 692.118 79.4984C694.258 80.6089 697.716 80.2358 699.323 78.7212C701.295 76.8627 701.569 73.888 701.569 54.3799V36.1026H710.564H719.559L719.542 55.5328C719.529 69.5885 719.337 76.0149 718.848 78.7658C717.21 87.9816 711.608 94.2493 702.94 96.5645C699.595 97.4582 690.256 97.419 686.458 96.4953ZM132.19 94.655C133.041 92.2705 157.074 23.5468 158.233 20.1824L158.968 18.0513H168.814H178.66L193.003 57.0517C200.892 78.5019 207.347 96.2148 207.347 96.4136C207.347 96.6124 202.901 96.775 197.467 96.775H187.588L184.563 87.624L181.538 78.473L169.011 78.3392L156.483 78.2053L155.176 81.8492C154.458 83.8533 152.996 87.975 151.929 91.0086L149.987 96.5243L140.707 96.6607L131.426 96.797L132.19 94.655ZM172.406 52.4019C170.598 47.0257 169.006 42.6279 168.868 42.6289C168.731 42.6289 167.114 47.0286 165.275 52.4037L161.931 62.1767H168.812H175.694L172.406 52.4019ZM242.327 55.4075V14.0399H251.322H260.317V55.4075V96.775H251.322H242.327V55.4075ZM726.555 66.4388V36.1026H735.55H744.545V38.728V41.3534L745.669 39.7297C747.257 37.4373 750.091 36.2452 754.914 35.8417L759.037 35.4968V45.013V54.5291L753.415 54.7756C750.323 54.9112 747.391 55.1925 746.9 55.4009C744.669 56.3473 744.545 57.5223 744.545 77.696V96.775H735.55H726.555V66.4388Z" fill="#382C14"/>
<path d="M52.2941 115.806C42.9657 115.086 33.8381 111.863 25.5271 106.356C13.194 98.1826 5.26935 86.9211 1.14127 71.7021C0.152024 68.0551 0.0076147 66.321 0.000368771 57.9996C-0.00712702 49.1448 0.0882382 48.1264 1.35508 43.5662C3.3528 36.3751 5.38922 31.8431 9.22517 26.0513C19.3917 10.701 35.4402 1.24638 53.2043 0.14219C68.959 -0.837093 81.8207 3.21777 94.1709 13.0574C98.7857 16.7342 104.721 23.8078 107.925 29.448C115.686 43.1133 117.436 60.5044 112.589 75.8002C110.966 80.9224 107.311 88.0613 104.029 92.5218C91.9202 108.973 73.1621 117.416 52.2941 115.806ZM68.4601 108.193C78.0402 105.841 86.7524 101.11 93.1601 94.781C96.0417 91.9348 97.1795 89.7884 97.1795 87.1989C97.1795 84.8238 89.9659 71.2874 88.7002 71.2874C88.0374 71.2874 87.1381 72.6197 85.4483 76.1051C83.5545 80.0115 82.3871 81.6517 79.2772 84.7764C72.6567 91.4283 65.5064 94.1951 56.2026 93.7051C44.1021 93.0679 34.7539 86.8898 29.3816 75.9795C27.9404 73.0525 26.6464 71.0367 26.2088 71.0367C25.1522 71.0367 17.7612 85.6095 17.7404 87.734C17.7169 90.0991 18.6926 91.6842 22.2963 95.1375C29.2796 101.829 39.0346 106.893 48.413 108.695C52.7944 109.537 64.1455 109.253 68.4601 108.193ZM63.4662 86.5551C72.0248 84.3183 78.9898 77.3107 81.2535 68.6588C82.3798 64.3543 82.4203 61.5588 81.4185 57.2941C77.7932 41.8619 61.9034 34.0647 46.983 40.3967C42.2514 42.4047 37.2847 47.6914 34.6165 53.5601C33.6604 55.6629 33.5068 56.8803 33.4876 62.5125C33.4651 69.0271 33.4666 69.0333 35.3342 72.9584C40.4546 83.7186 52.3399 89.4631 63.4662 86.5551ZM13.3188 79.6863C14.6424 78.6266 48.7909 10.215 48.615 8.9754C48.4808 8.03017 48.1857 7.87812 46.7076 7.99275C44.6154 8.15501 39.5109 9.78616 35.7141 11.5058C21.0025 18.169 9.42824 33.746 6.95453 50.2116C5.49515 59.9255 6.18447 67.4986 9.22041 75.1064C11.3365 80.4092 11.787 80.9126 13.3188 79.6863ZM103.904 79.0095C105.04 77.8701 106.079 75.1973 107.298 70.2845C108.85 64.031 108.836 51.1639 107.272 45.5099C102.174 27.0848 89.7276 14.0844 71.8917 8.55667C67.8569 7.30617 66.007 7.43312 65.7885 8.9754C65.6975 9.61873 66.8904 12.494 68.5972 15.7446C71.6834 21.6225 74.1146 26.3087 85.1862 47.7204C88.8225 54.7529 93.0087 62.8074 94.4889 65.6194C95.969 68.4314 97.9956 72.3801 98.9924 74.3944C100.819 78.0855 102.006 79.8116 102.718 79.8116C102.931 79.8116 103.465 79.4507 103.904 79.0095ZM50.9555 32.4169C54.8746 31.4674 60.3104 31.4822 64.486 32.454C69.3279 33.5807 70.1637 32.9429 68.2792 29.5591C67.7753 28.6544 65.3996 24.0403 62.9998 19.3057C58.7942 11.0087 57.9587 9.8536 56.5539 10.3945C55.7237 10.7142 45.1157 32.121 45.488 32.7255C45.8759 33.3552 47.4489 33.2665 50.9555 32.4169Z" fill="#CCB48D"/>
</svg>
