<svg width="38" height="63" viewBox="0 0 38 63" fill="none" xmlns="http://www.w3.org/2000/svg">
<g id="BBB">
<path id="Rectangle 6239" d="M18.6518 0C18.6518 7 30.6518 8.5 30.6518 16C30.6518 22 25.6519 29 25.6519 29C25.6518 22.5 12.6519 19.2048 12.6519 11.5C12.6519 5.5 18.6518 0 18.6518 0Z" fill="#64160C"/>
<path id="Rectangle 6240" d="M13.7571 18C13.7571 22.5862 22.1519 24.0862 22.1519 29C22.1519 32.931 18.5467 37 18.5467 37C18.5466 32.7414 9.65186 30.5824 9.65186 25.5345C9.65186 21.6034 13.7571 18 13.7571 18Z" fill="#64160C"/>
<path id="Rectangle 6241" d="M5.65186 40C5.65186 39.4477 6.09957 39 6.65186 39H30.6519C31.2041 39 31.6519 39.4477 31.6519 40V41C31.6519 41.5523 31.2041 42 30.6519 42H25.6519C25.0996 42 24.6519 42.4477 24.6519 43V45C24.6519 45.5523 24.2041 46 23.6519 46H13.6519C13.0996 46 12.6519 45.5523 12.6519 45V43C12.6519 42.4477 12.2041 42 11.6519 42H6.65186C6.09957 42 5.65186 41.5523 5.65186 41V40Z" fill="#64160C"/>
<g id="BBB_2">
<path d="M7.902 55.714C8.682 55.966 9.282 56.362 9.702 56.902C10.134 57.442 10.35 58.102 10.35 58.882C10.35 60.142 9.954 61.084 9.162 61.708C8.382 62.332 7.068 62.644 5.22 62.644H0V49H5.22C6.888 49 8.07 49.306 8.766 49.918C9.462 50.53 9.81 51.442 9.81 52.654C9.81 53.386 9.654 54.01 9.342 54.526C9.042 55.03 8.562 55.426 7.902 55.714ZM2.502 54.796H5.22C6.588 54.796 7.272 54.154 7.272 52.87C7.272 52.21 7.116 51.736 6.804 51.448C6.492 51.16 5.964 51.016 5.22 51.016H2.502V54.796ZM7.812 58.702C7.812 58.042 7.596 57.562 7.164 57.262C6.732 56.962 6.084 56.812 5.22 56.812H2.502V60.628H5.22C6.168 60.628 6.834 60.478 7.218 60.178C7.614 59.866 7.812 59.374 7.812 58.702Z" fill="#64160C"/>
<path d="M21.3401 55.714C22.1201 55.966 22.7201 56.362 23.1401 56.902C23.5721 57.442 23.7881 58.102 23.7881 58.882C23.7881 60.142 23.3921 61.084 22.6001 61.708C21.8201 62.332 20.5061 62.644 18.6581 62.644H13.4381V49H18.6581C20.3261 49 21.5081 49.306 22.2041 49.918C22.9001 50.53 23.2481 51.442 23.2481 52.654C23.2481 53.386 23.0921 54.01 22.7801 54.526C22.4801 55.03 22.0001 55.426 21.3401 55.714ZM15.9401 54.796H18.6581C20.0261 54.796 20.7101 54.154 20.7101 52.87C20.7101 52.21 20.5541 51.736 20.2421 51.448C19.9301 51.16 19.4021 51.016 18.6581 51.016H15.9401V54.796ZM21.2501 58.702C21.2501 58.042 21.0341 57.562 20.6021 57.262C20.1701 56.962 19.5221 56.812 18.6581 56.812H15.9401V60.628H18.6581C19.6061 60.628 20.2721 60.478 20.6561 60.178C21.0521 59.866 21.2501 59.374 21.2501 58.702Z" fill="#64160C"/>
<path d="M34.7782 55.714C35.5582 55.966 36.1583 56.362 36.5783 56.902C37.0103 57.442 37.2262 58.102 37.2262 58.882C37.2262 60.142 36.8302 61.084 36.0382 61.708C35.2582 62.332 33.9442 62.644 32.0962 62.644H26.8762V49H32.0962C33.7642 49 34.9462 49.306 35.6423 49.918C36.3382 50.53 36.6862 51.442 36.6862 52.654C36.6862 53.386 36.5302 54.01 36.2183 54.526C35.9182 55.03 35.4382 55.426 34.7782 55.714ZM29.3783 54.796H32.0962C33.4642 54.796 34.1483 54.154 34.1483 52.87C34.1483 52.21 33.9922 51.736 33.6802 51.448C33.3682 51.16 32.8402 51.016 32.0962 51.016H29.3783V54.796ZM34.6882 58.702C34.6882 58.042 34.4722 57.562 34.0402 57.262C33.6082 56.962 32.9602 56.812 32.0962 56.812H29.3783V60.628H32.0962C33.0442 60.628 33.7102 60.478 34.0942 60.178C34.4902 59.866 34.6882 59.374 34.6882 58.702Z" fill="#64160C"/>
</g>
</g>
</svg>
