<svg width="24" height="24" viewBox="0 0 24 24" fill="none" xmlns="http://www.w3.org/2000/svg">
<rect x="5.25" y="14.25" width="0.5" height="3.5" stroke="#B2B2B2" stroke-width="0.5"/>
<path d="M5 6.5H18C18.2761 6.5 18.5 6.72386 18.5 7V14C18.5 14.2761 18.2761 14.5 18 14.5H7C5.61929 14.5 4.5 13.3807 4.5 12V7C4.5 6.72386 4.72386 6.5 5 6.5Z" stroke="url(#paint0_linear_72_184)"/>
<rect x="5.25" y="10.25" width="12.5" height="0.5" stroke="#BBBBBB" stroke-width="0.5"/>
<rect x="5.25" y="12.25" width="12.5" height="0.5" stroke="#BBBBBB" stroke-width="0.5"/>
<rect x="8.25" y="7.25" width="0.5" height="6.5" stroke="#F4F4F4" stroke-width="0.5"/>
<rect x="10.25" y="7.25" width="0.5" height="6.5" stroke="#F4F4F4" stroke-width="0.5"/>
<rect x="12.25" y="7.25" width="0.5" height="6.5" stroke="#F4F4F4" stroke-width="0.5"/>
<rect x="14.25" y="7.25" width="0.5" height="6.5" stroke="#F4F4F4" stroke-width="0.5"/>
<rect x="16.25" y="7.25" width="0.5" height="6.5" stroke="#F4F4F4" stroke-width="0.5"/>
<rect x="6.25" y="7.25" width="0.5" height="6.5" stroke="#F4F4F4" stroke-width="0.5"/>
<rect x="5.25" y="16.25" width="12.5" height="0.5" stroke="#888888" stroke-width="0.5"/>
<rect x="5.25" y="8.25" width="12.5" height="0.5" stroke="#C8C8C8" stroke-width="0.5"/>
<circle cx="5.25" cy="17.25" r="1.25" fill="#888888"/>
<circle cx="3.49999" cy="6.49999" r="1.17333" stroke="#AAAAAA" stroke-width="0.853333"/>
<path d="M14.75 11.5H19.25V13.75H21.5V16V18.25H19.25V20.5H14.75V18.25H12.5V13.75H14.75V11.5Z" fill="url(#paint1_linear_72_184)"/>
<path d="M15.875 12.625H18.125V14.875H20.375V16V17.125H18.125V19.375H15.875V17.125H13.625V14.875H15.875V12.625Z" fill="white"/>
<defs>
<linearGradient id="paint0_linear_72_184" x1="11.5" y1="6" x2="11.5" y2="11.5" gradientUnits="userSpaceOnUse">
<stop stop-color="#BBBBBB"/>
<stop offset="1" stop-color="#999999"/>
</linearGradient>
<linearGradient id="paint1_linear_72_184" x1="17" y1="11.5" x2="18.6875" y2="19.9375" gradientUnits="userSpaceOnUse">
<stop stop-color="#BEBEBE"/>
<stop offset="1" stop-color="#949393"/>
</linearGradient>
</defs>
</svg>
