<svg width="42" height="42" viewBox="0 0 32 32" fill="none" xmlns="http://www.w3.org/2000/svg">
<g id="facebook">
<path id="Vector" d="M29.1625 1.20752H2.84C1.9384 1.20752 1.2075 1.93841 1.2075 2.84002V29.1625C1.2075 30.0641 1.9384 30.795 2.84 30.795H29.1625C30.0641 30.795 30.795 30.0641 30.795 29.1625V2.84002C30.795 1.93841 30.0641 1.20752 29.1625 1.20752Z" fill="#3D5A98"/>
<path id="Vector_2" d="M21.62 30.7925V19.335H25.465L26.04 14.87H21.62V12.02C21.62 10.7275 21.98 9.84501 23.8325 9.84501H26.1975V5.845C25.0523 5.72565 23.9014 5.6689 22.75 5.67501C19.345 5.67501 17 7.75001 17 11.5775V14.87H13.155V19.335H17V30.7925H21.62Z" fill="white"/>
</g>
</svg>
