<svg width="44" height="44" viewBox="0 0 44 44" fill="none" xmlns="http://www.w3.org/2000/svg">
<path d="M44 22C44 34.1503 34.1503 44 22 44C9.84974 44 0 34.1503 0 22C0 9.84974 9.84974 0 22 0C34.1503 0 44 9.84974 44 22ZM2.2 22C2.2 32.9352 11.0648 41.8 22 41.8C32.9352 41.8 41.8 32.9352 41.8 22C41.8 11.0648 32.9352 2.2 22 2.2C11.0648 2.2 2.2 11.0648 2.2 22Z" fill="#D63323"/>
<rect x="19" y="10" width="6" height="24" fill="#D63323"/>
<rect x="10" y="25" width="6" height="24" transform="rotate(-90 10 25)" fill="#D63323"/>
</svg>
