<svg width="720" height="90" viewBox="0 0 720 90" fill="none" xmlns="http://www.w3.org/2000/svg">
<g clip-path="url(#clip0_97_15)">
<path d="M93.1 85.5H119.4L133.5 4.79999H107.2L102 33.7H79.2L84.4 4.79999H58.1L44 85.5H70.3L75.6 55.3H98.4L93.1 85.5Z" fill="#C9C0BD"/>
<path d="M148.4 4.70001L140.4 49.6C139.7 53.1 139.4 56.5 139.4 59.7C139.4 83.5 160.2 87.1 172.7 87.1C198.9 87.1 210.2 78.4 214.3 54.9L223.1 4.60001H196.8L189.3 46.8C186.9 60 185.2 66.9 175.4 66.9C169 66.9 165.9 63.5 165.9 56.5C165.9 53.8 166.3 50.5 167.1 46.4L174.7 4.60001H148.4V4.70001Z" fill="#C9C0BD"/>
<path d="M362.1 85.5H388.4L392.1 64.7H404.5C427.4 64.7 440.1 52.3 440.1 29.7C440.1 13.8 429.1 4.70001 409.8 4.70001H376.2L362.1 85.5ZM403.1 44.8H395.5L399 25.8H406.1C411.9 25.8 415 28.7 415 34C415 40.7 410.5 44.8 403.1 44.8Z" fill="#C9C0BD"/>
<path d="M491.2 3C462.6 3 445.5 21.5 445.5 52.6C445.5 74.2 459.1 87.2 481.9 87.2C510.5 87.2 527.6 68.7 527.6 37.6C527.7 15.9 514.1 3 491.2 3ZM483.5 66.3C476.7 66.3 472.7 61.4 472.7 53.2C472.7 50.1 473 47.4 473.6 44.3C475.6 33.7 479 24 489.7 24C496.5 24 500.5 28.9 500.5 37.1C500.5 40.2 500.2 42.9 499.6 46C497.6 56.5 494.2 66.3 483.5 66.3Z" fill="#C9C0BD"/>
<path d="M619.1 85.5H645.4L655.8 26.4H675.6L679.4 4.79999H612.1L608.3 26.4H629.3L619.1 85.5Z" fill="#C9C0BD"/>
<path d="M575.5 34.6C567.2 32 563.8 30.9 563.8 27C563.8 24.4 565.5 21.3 570.5 21.3C574.2 21.3 577.3 23.4 578.5 26.5L601.7 20.2C599 8.8 589.2 3 572.3 3C540.5 3 538 24.3 538 30.8C538 44 545 52.1 560.2 56.3C564.2 57.4 568.8 58.6 568.8 63C568.8 66.5 566.2 68.7 561.7 68.7C557.6 68.7 553.2 66.3 551.7 62.1L528.8 68.3C531.3 80.3 542.6 87.1 560.3 87.1C573.8 87.1 596.4 83.5 596.4 59.1C596.5 46.9 589.6 38.9 575.5 34.6Z" fill="#C9C0BD"/>
<path d="M29.3 85.5L43.5 4.79999H0V85.5H29.3Z" fill="#C9C0BD"/>
<path d="M690.7 4.79999L676.6 85.5H720.1V4.79999H690.7Z" fill="#C9C0BD"/>
<path d="M238.1 4.70001L224 85.5H250.3L254.5 61.7H276.6L280.2 41.4H258.1L260.6 26.4H291.5L295.3 4.70001H238.1Z" fill="#C9C0BD"/>
<path d="M307.1 4.70001L293 85.5H319.3L323.4 61.7H345.6L349.2 41.4H327.1L329.6 26.4H360.5L364.3 4.70001H307.1Z" fill="#C9C0BD"/>
</g>
<defs>
<clipPath id="clip0_97_15">
<rect width="720" height="90" fill="white"/>
</clipPath>
</defs>
</svg>
