<svg width="24" height="24" viewBox="0 0 24 24" fill="none" xmlns="http://www.w3.org/2000/svg">
<rect width="24" height="24" fill="white"/>
<path d="M6 3.08109H17.7333L20.4 11.7297H3.33334L6 3.08109Z" fill="#D0D0E2"/>
<rect x="4.13333" y="2" width="16" height="1.08108" rx="0.540541" fill="#BABACB"/>
<rect x="3.33334" y="11.7297" width="17.0667" height="10.2703" rx="1" fill="#C1B09E"/>
<rect x="4.66667" y="11.7297" width="14.6667" height="8.91892" fill="#FBEDE0"/>
<rect x="6" y="11.7297" width="12" height="10.2703" fill="#6088B0"/>
<rect x="7.06667" y="11.7297" width="9.86667" height="8.91892" fill="#D2DBED"/>
<path d="M10.1333 11.7297H16.9333V20.6487H10.1333V11.7297Z" fill="#B2C5E2"/>
<rect x="6" y="11.7297" width="12" height="1.35135" fill="#6088AF"/>
<rect x="11.8667" y="14.1622" width="6.13333" height="3.78378" fill="#FCEA90"/>
<rect x="12.9333" y="14.973" width="4" height="2.16216" fill="#CBA965"/>
<path d="M3.72619 2.83389C3.80729 2.35249 4.22412 2 4.7123 2H7.06667V13.0811H3.18254C2.5639 13.0811 2.09367 12.525 2.19644 11.915L3.72619 2.83389Z" fill="url(#paint0_linear_71_4)"/>
<path d="M20.2738 2.83389C20.1927 2.35249 19.7759 2 19.2877 2H16.9333V13.0811H20.8175C21.4361 13.0811 21.9063 12.525 21.8036 11.915L20.2738 2.83389Z" fill="url(#paint1_linear_71_4)"/>
<rect x="9.46667" y="2" width="5.06667" height="11.0811" fill="url(#paint2_linear_71_4)"/>
<path d="M4.4 3.35135H6V11.7297H3.06667L4.4 3.35135Z" fill="url(#paint3_linear_71_4)"/>
<path d="M19.6 3.35135H18V11.7297H20.9333L19.6 3.35135Z" fill="url(#paint4_linear_71_4)"/>
<rect x="10.5333" y="3.35135" width="2.93333" height="8.37838" fill="url(#paint5_linear_71_4)"/>
<defs>
<linearGradient id="paint0_linear_71_4" x1="4.53333" y1="2" x2="4.53333" y2="13.0811" gradientUnits="userSpaceOnUse">
<stop stop-color="#ED5454"/>
<stop offset="0.338542" stop-color="#D75151"/>
<stop offset="1" stop-color="#BE2525"/>
</linearGradient>
<linearGradient id="paint1_linear_71_4" x1="19.4667" y1="2" x2="19.4667" y2="13.0811" gradientUnits="userSpaceOnUse">
<stop stop-color="#ED5454"/>
<stop offset="0.338542" stop-color="#D75151"/>
<stop offset="1" stop-color="#BE2525"/>
</linearGradient>
<linearGradient id="paint2_linear_71_4" x1="12" y1="2" x2="12" y2="13.0811" gradientUnits="userSpaceOnUse">
<stop stop-color="#ED5454"/>
<stop offset="0.338542" stop-color="#D75151"/>
<stop offset="1" stop-color="#BE2525"/>
</linearGradient>
<linearGradient id="paint3_linear_71_4" x1="4.53333" y1="3.35135" x2="4.53333" y2="11.7297" gradientUnits="userSpaceOnUse">
<stop stop-color="#FF7878"/>
<stop offset="0.346875" stop-color="#F76D6D"/>
<stop offset="0.638542" stop-color="#FFA19E"/>
<stop offset="1" stop-color="#D68B8C"/>
<stop offset="1" stop-color="#F89D98"/>
</linearGradient>
<linearGradient id="paint4_linear_71_4" x1="19.4667" y1="3.35135" x2="19.4667" y2="11.7297" gradientUnits="userSpaceOnUse">
<stop stop-color="#FF7878"/>
<stop offset="0.346875" stop-color="#F76D6D"/>
<stop offset="0.638542" stop-color="#FFA19E"/>
<stop offset="1" stop-color="#D68B8C"/>
<stop offset="1" stop-color="#F89D98"/>
</linearGradient>
<linearGradient id="paint5_linear_71_4" x1="12" y1="3.35135" x2="12" y2="11.7297" gradientUnits="userSpaceOnUse">
<stop stop-color="#FF7878"/>
<stop offset="0.346875" stop-color="#F76D6D"/>
<stop offset="0.638542" stop-color="#FFA19E"/>
<stop offset="1" stop-color="#D68B8C"/>
<stop offset="1" stop-color="#F89D98"/>
</linearGradient>
</defs>
</svg>
