<svg width="721" height="85" viewBox="0 0 721 85" fill="none" xmlns="http://www.w3.org/2000/svg">
<path d="M93.1 82.5H119.4L133.5 1.79999H107.2L102 30.7H79.2L84.4 1.79999H58.1L44 82.5H70.3L75.6 52.3H98.4L93.1 82.5Z" fill="#111111"/>
<path d="M148.4 1.69998L140.4 46.6C139.7 50.1 139.4 53.5 139.4 56.7C139.4 80.5 160.2 84.1 172.7 84.1C198.9 84.1 210.2 75.4 214.3 51.9L223.1 1.59998H196.8L189.3 43.8C186.9 57 185.2 63.9 175.4 63.9C169 63.9 165.9 60.5 165.9 53.5C165.9 50.8 166.3 47.5 167.1 43.4L174.7 1.59998H148.4V1.69998Z" fill="#111111"/>
<path d="M362.1 82.5H388.4L392.1 61.7H404.5C427.4 61.7 440.1 49.3 440.1 26.7C440.1 10.8 429.1 1.70001 409.8 1.70001H376.2L362.1 82.5ZM403.1 41.8H395.5L399 22.8H406.1C411.9 22.8 415 25.7 415 31C415 37.7 410.5 41.8 403.1 41.8Z" fill="#111111"/>
<path d="M491.2 0C462.6 0 445.5 18.5 445.5 49.6C445.5 71.2 459.1 84.2 481.9 84.2C510.5 84.2 527.6 65.7 527.6 34.6C527.7 12.9 514.1 0 491.2 0ZM483.5 63.3C476.7 63.3 472.7 58.4 472.7 50.2C472.7 47.1 473 44.4 473.6 41.3C475.6 30.7 479 21 489.7 21C496.5 21 500.5 25.9 500.5 34.1C500.5 37.2 500.2 39.9 499.6 43C497.6 53.5 494.2 63.3 483.5 63.3Z" fill="#111111"/>
<path d="M619.1 82.5H645.4L655.8 23.4H675.6L679.4 1.79999H612.1L608.3 23.4H629.3L619.1 82.5Z" fill="#111111"/>
<path d="M575.5 31.6C567.2 29 563.8 27.9 563.8 24C563.8 21.4 565.5 18.3 570.5 18.3C574.2 18.3 577.3 20.4 578.5 23.5L601.7 17.2C599 5.8 589.2 0 572.3 0C540.5 0 538 21.3 538 27.8C538 41 545 49.1 560.2 53.3C564.2 54.4 568.8 55.6 568.8 60C568.8 63.5 566.2 65.7 561.7 65.7C557.6 65.7 553.2 63.3 551.7 59.1L528.8 65.3C531.3 77.3 542.6 84.1 560.3 84.1C573.8 84.1 596.4 80.5 596.4 56.1C596.5 43.9 589.6 35.9 575.5 31.6Z" fill="#111111"/>
<path d="M29.3 82.5L43.5 1.79999H0V82.5H29.3Z" fill="#0DBE98"/>
<path d="M690.7 1.79999L676.6 82.5H720.1V1.79999H690.7Z" fill="#0DBE98"/>
<path d="M238.1 1.70001L224 82.5H250.3L254.5 58.7H276.6L280.2 38.4H258.1L260.6 23.4H291.5L295.3 1.70001H238.1Z" fill="#111111"/>
<path d="M307.1 1.70001L293 82.5H319.3L323.4 58.7H345.6L349.2 38.4H327.1L329.6 23.4H360.5L364.3 1.70001H307.1Z" fill="#111111"/>
</svg>
