<svg width="42" height="44" viewBox="0 0 42 44" fill="none" xmlns="http://www.w3.org/2000/svg">
<g id="Frame 2608175">
<ellipse id="Ellipse 13" cx="21" cy="40" rx="21" ry="4" fill="url(#paint0_radial_168_154)"/>
<circle id="Ellipse 15" cx="21" cy="20" r="20" fill="#FCEDDF"/>
<g id="Group">
<path id="Vector" d="M26.3125 10H15.6875C13.0987 10 11 12.0987 11 14.6875V25.3125C11 27.9013 13.0987 30 15.6875 30H26.3125C28.9013 30 31 27.9013 31 25.3125V14.6875C31 12.0987 28.9013 10 26.3125 10Z" fill="#972716"/>
<path id="Vector_2" d="M21.0007 12.1875C18.879 12.1875 18.6127 12.1968 17.7794 12.2347C16.9477 12.2728 16.3799 12.4045 15.8832 12.5977C15.3693 12.7972 14.9334 13.0641 14.4992 13.4985C14.0646 13.9328 13.7977 14.3687 13.5975 14.8823C13.4038 15.3792 13.272 15.9472 13.2345 16.7785C13.1973 17.6119 13.1875 17.8783 13.1875 20.0001C13.1875 22.1219 13.1969 22.3873 13.2347 23.2206C13.273 24.0523 13.4046 24.6201 13.5977 25.1168C13.7973 25.6307 14.0643 26.0666 14.4987 26.5008C14.9328 26.9354 15.3687 27.203 15.8822 27.4025C16.3793 27.5957 16.9471 27.7273 17.7787 27.7655C18.612 27.8034 18.8781 27.8127 20.9998 27.8127C23.1217 27.8127 23.3872 27.8034 24.2205 27.7655C25.0522 27.7273 25.6205 27.5957 26.1177 27.4025C26.6313 27.203 27.0666 26.9354 27.5006 26.5008C27.9352 26.0666 28.2021 25.6307 28.4023 25.117C28.5944 24.6201 28.7262 24.0522 28.7653 23.2208C28.8027 22.3875 28.8125 22.1219 28.8125 20.0001C28.8125 17.8783 28.8027 17.612 28.7653 16.7787C28.7262 15.947 28.5944 15.3793 28.4023 14.8826C28.2021 14.3687 27.9352 13.9328 27.5006 13.4985C27.0661 13.064 26.6315 12.797 26.1172 12.5977C25.6191 12.4045 25.0511 12.2727 24.2194 12.2347C23.386 12.1968 23.1207 12.1875 20.9983 12.1875H21.0007ZM20.2998 13.5954C20.5079 13.5951 20.74 13.5954 21.0007 13.5954C23.0867 13.5954 23.3339 13.6029 24.1577 13.6403C24.9194 13.6752 25.3328 13.8024 25.6082 13.9094C25.9728 14.0509 26.2327 14.2202 26.506 14.4938C26.7795 14.7672 26.9487 15.0276 27.0906 15.3922C27.1976 15.6672 27.325 16.0806 27.3597 16.8423C27.3971 17.6659 27.4052 17.9133 27.4052 19.9983C27.4052 22.0833 27.3971 22.3307 27.3597 23.1542C27.3248 23.9159 27.1976 24.3294 27.0906 24.6045C26.9491 24.9691 26.7795 25.2287 26.506 25.502C26.2326 25.7754 25.973 25.9446 25.6082 26.0863C25.3331 26.1937 24.9194 26.3206 24.1577 26.3555C23.3341 26.3929 23.0867 26.401 21.0007 26.401C18.9146 26.401 18.6673 26.3929 17.8438 26.3555C17.0821 26.3203 16.6687 26.193 16.393 26.0861C16.0285 25.9445 15.768 25.7752 15.4946 25.5018C15.2212 25.2284 15.052 24.9686 14.91 24.6038C14.803 24.3287 14.6756 23.9153 14.6409 23.1536C14.6035 22.33 14.596 22.0827 14.596 19.9963C14.596 17.9101 14.6035 17.664 14.6409 16.8404C14.6758 16.0787 14.803 15.6652 14.91 15.3898C15.0516 15.0252 15.2212 14.7648 15.4947 14.4914C15.7681 14.218 16.0285 14.0487 16.3931 13.9068C16.6685 13.7994 17.0821 13.6724 17.8438 13.6374C18.5645 13.6048 18.8438 13.5951 20.2998 13.5934V13.5954ZM25.171 14.8926C24.6534 14.8926 24.2335 15.3121 24.2335 15.8298C24.2335 16.3473 24.6534 16.7673 25.171 16.7673C25.6886 16.7673 26.1085 16.3473 26.1085 15.8298C26.1085 15.3122 25.6886 14.8923 25.171 14.8923V14.8926ZM21.0007 15.988C18.7851 15.988 16.9887 17.7844 16.9887 20.0001C16.9887 22.2158 18.7851 24.0113 21.0007 24.0113C23.2164 24.0113 25.0122 22.2158 25.0122 20.0001C25.0122 17.7845 23.2163 15.988 21.0005 15.988H21.0007ZM21.0007 17.3959C22.4389 17.3959 23.6049 18.5617 23.6049 20.0001C23.6049 21.4383 22.4389 22.6043 21.0007 22.6043C19.5624 22.6043 18.3966 21.4383 18.3966 20.0001C18.3966 18.5617 19.5624 17.3959 21.0007 17.3959Z" fill="white"/>
</g>
</g>
<defs>
<radialGradient id="paint0_radial_168_154" cx="0" cy="0" r="1" gradientUnits="userSpaceOnUse" gradientTransform="translate(21 40) rotate(90) scale(4 21.916)">
<stop stop-color="#444444"/>
<stop offset="1" stop-color="#444444" stop-opacity="0"/>
</radialGradient>
</defs>
</svg>
