<svg width="42" height="34" viewBox="0 0 42 34" fill="none" xmlns="http://www.w3.org/2000/svg">
<g id="insta">
<ellipse id="Ellipse 13" cx="21" cy="30" rx="21" ry="4" fill="url(#paint0_radial_112_34)"/>
<g id="Group">
<path id="Vector" d="M28.9688 1H13.0312C9.148 1 6 4.148 6 8.03125V23.9688C6 27.852 9.148 31 13.0312 31H28.9688C32.852 31 36 27.852 36 23.9688V8.03125C36 4.148 32.852 1 28.9688 1Z" fill="url(#paint1_radial_112_34)"/>
<path id="Vector_2" d="M28.9688 1H13.0312C9.148 1 6 4.148 6 8.03125V23.9688C6 27.852 9.148 31 13.0312 31H28.9688C32.852 31 36 27.852 36 23.9688V8.03125C36 4.148 32.852 1 28.9688 1Z" fill="url(#paint2_radial_112_34)"/>
<path id="Vector_3" d="M21.0011 4.28125C17.8185 4.28125 17.419 4.2952 16.1691 4.35203C14.9215 4.40922 14.0699 4.60668 13.3248 4.89648C12.5539 5.19578 11.9002 5.59621 11.2488 6.24777C10.5969 6.89922 10.1965 7.55301 9.89625 8.32352C9.60563 9.06883 9.40793 9.92078 9.3518 11.1678C9.2959 12.4178 9.28125 12.8174 9.28125 16.0001C9.28125 19.1828 9.29531 19.581 9.35203 20.8309C9.40945 22.0785 9.60691 22.9301 9.89648 23.6752C10.196 24.4461 10.5964 25.0998 11.248 25.7512C11.8992 26.4031 12.553 26.8045 13.3233 27.1038C14.0689 27.3936 14.9207 27.591 16.168 27.6482C17.418 27.705 17.8172 27.719 20.9996 27.719C24.1826 27.719 24.5808 27.705 25.8307 27.6482C27.0783 27.591 27.9308 27.3936 28.6765 27.1038C29.447 26.8045 30.0998 26.4031 30.7509 25.7512C31.4029 25.0998 31.8032 24.4461 32.1035 23.6755C32.3916 22.9301 32.5894 22.0783 32.648 20.8312C32.7041 19.5812 32.7188 19.1828 32.7188 16.0001C32.7188 12.8174 32.7041 12.418 32.648 11.168C32.5894 9.92043 32.3916 9.06895 32.1035 8.32387C31.8032 7.55301 31.4029 6.89922 30.7509 6.24777C30.0991 5.59598 29.4472 5.19555 28.6758 4.8966C27.9287 4.60668 27.0766 4.4091 25.8291 4.35203C24.579 4.2952 24.1811 4.28125 20.9974 4.28125H21.0011ZM19.9498 6.39309C20.2618 6.39262 20.61 6.39309 21.0011 6.39309C24.1301 6.39309 24.5009 6.40434 25.7365 6.46047C26.8791 6.51273 27.4992 6.70363 27.9123 6.86406C28.4592 7.07641 28.8491 7.33035 29.259 7.74063C29.6692 8.15078 29.923 8.54137 30.1359 9.08828C30.2964 9.50078 30.4875 10.1209 30.5395 11.2635C30.5957 12.4989 30.6079 12.8699 30.6079 15.9974C30.6079 19.1249 30.5957 19.4961 30.5395 20.7313C30.4873 21.8739 30.2964 22.4941 30.1359 22.9067C29.9236 23.4536 29.6692 23.843 29.259 24.2529C28.8489 24.6631 28.4595 24.9169 27.9123 25.1294C27.4997 25.2905 26.8791 25.4809 25.7365 25.5332C24.5011 25.5893 24.1301 25.6015 21.0011 25.6015C17.8719 25.6015 17.501 25.5893 16.2657 25.5332C15.1232 25.4805 14.503 25.2896 14.0896 25.1291C13.5428 24.9167 13.1521 24.6629 12.7419 24.2527C12.3318 23.8425 12.0779 23.4529 11.865 22.9057C11.7046 22.4931 11.5134 21.873 11.4614 20.7304C11.4053 19.495 11.394 19.124 11.394 15.9945C11.394 12.8651 11.4053 12.496 11.4614 11.2606C11.5137 10.118 11.7046 9.49785 11.865 9.08477C12.0775 8.53785 12.3318 8.14727 12.742 7.73711C13.1522 7.32695 13.5428 7.07301 14.0897 6.8602C14.5028 6.69906 15.1232 6.50863 16.2657 6.45613C17.3468 6.40727 17.7657 6.39262 19.9498 6.39016V6.39309ZM27.2565 8.33887C26.4802 8.33887 25.8503 8.96816 25.8503 9.74465C25.8503 10.521 26.4802 11.1509 27.2565 11.1509C28.0329 11.1509 28.6628 10.521 28.6628 9.74465C28.6628 8.96828 28.0329 8.3384 27.2565 8.3384V8.33887ZM21.0011 9.98195C17.6776 9.98195 14.983 12.6766 14.983 16.0001C14.983 19.3237 17.6776 22.017 21.0011 22.017C24.3246 22.017 27.0183 19.3237 27.0183 16.0001C27.0183 12.6767 24.3244 9.98195 21.0008 9.98195H21.0011ZM21.0011 12.0938C23.1584 12.0938 24.9074 13.8426 24.9074 16.0001C24.9074 18.1574 23.1584 19.9064 21.0011 19.9064C18.8436 19.9064 17.0948 18.1574 17.0948 16.0001C17.0948 13.8426 18.8436 12.0938 21.0011 12.0938Z" fill="white"/>
</g>
</g>
<defs>
<radialGradient id="paint0_radial_112_34" cx="0" cy="0" r="1" gradientUnits="userSpaceOnUse" gradientTransform="translate(21 30) rotate(90) scale(4 21.916)">
<stop stop-color="#111111"/>
<stop offset="1" stop-color="#111111" stop-opacity="0"/>
</radialGradient>
<radialGradient id="paint1_radial_112_34" cx="0" cy="0" r="1" gradientUnits="userSpaceOnUse" gradientTransform="translate(13.9687 33.3106) rotate(-90) scale(29.7322 27.6533)">
<stop stop-color="#FFDD55"/>
<stop offset="0.1" stop-color="#FFDD55"/>
<stop offset="0.5" stop-color="#FF543E"/>
<stop offset="1" stop-color="#C837AB"/>
</radialGradient>
<radialGradient id="paint2_radial_112_34" cx="0" cy="0" r="1" gradientUnits="userSpaceOnUse" gradientTransform="translate(0.974883 3.16105) rotate(78.681) scale(13.2905 54.7837)">
<stop stop-color="#3771C8"/>
<stop offset="0.128" stop-color="#3771C8"/>
<stop offset="1" stop-color="#6600FF" stop-opacity="0"/>
</radialGradient>
</defs>
</svg>
