<svg xmlns="http://www.w3.org/2000/svg" viewBox="0 0 145.33 43.79">
<defs>
<style>.cls-1{fill:#be2c26;}.cls-2{fill:#eb3926;}.cls-3{fill:#7cc143;}</style>
</defs>
<g id="Layer_2" data-name="Layer 2">
<g id="Layer_1-2" data-name="Layer 1">
<path class="cls-1" d="M57.13,14.73a10.17,10.17,0,0,0-7.48-3.09A10.39,10.39,0,0,0,45,12.71c-.31.15-.61-.16-.61-.51V1.65A1.65,1.65,0,0,0,42.73,0h-2A1.65,1.65,0,0,0,39,1.65V22.22A10.55,10.55,0,0,0,49.65,32.84a10.11,10.11,0,0,0,7.48-3.11,10.24,10.24,0,0,0,3.1-7.51A10.18,10.18,0,0,0,57.13,14.73ZM53.35,25.94a5,5,0,0,1-3.7,1.55,5.27,5.27,0,0,1-5.27-5.27,5,5,0,0,1,1.54-3.7A5.1,5.1,0,0,1,49.65,17a5.29,5.29,0,0,1,5.23,5.23A5.06,5.06,0,0,1,53.35,25.94Z"/><path class="cls-1" d="M84.16,22.23a1.69,1.69,0,0,1-1.77,1.58h-13a.56.56,0,0,0-.51.8,5,5,0,0,0,1.59,1.9,5.13,5.13,0,0,0,3.13,1,4.9,4.9,0,0,0,2.69-.74,1.71,1.71,0,0,1,2.3.16l1.26,1.68a1.61,1.61,0,0,1-.19,2.3,10.12,10.12,0,0,1-6.06,1.91A10.53,10.53,0,0,1,63,22.24a10.1,10.1,0,0,1,3.11-7.47,10.59,10.59,0,0,1,18.09,7.46Zm-6.81-2.42c.35,0,.63-.37.43-.66A4.78,4.78,0,0,0,73.58,17a4.83,4.83,0,0,0-4.25,2.16c-.2.29.08.66.44.66Z"/><path class="cls-1" d="M90,14.73a10.2,10.2,0,0,1,5.91-3,1.48,1.48,0,0,1,1.6,1.55v2A2,2,0,0,1,96,17.21a5.29,5.29,0,0,0-3.72,5V30.6a1.65,1.65,0,0,1-1.65,1.65h-2a1.65,1.65,0,0,1-1.65-1.65V22.22A10.15,10.15,0,0,1,90,14.73Z"/><path class="cls-1" d="M103.31,14.73a10.23,10.23,0,0,1,5.91-3,1.48,1.48,0,0,1,1.6,1.55v2a2,2,0,0,1-1.54,1.87,5.26,5.26,0,0,0-3.72,5V30.6a1.65,1.65,0,0,1-1.65,1.65h-2a1.65,1.65,0,0,1-1.65-1.65V22.22A10.18,10.18,0,0,1,103.31,14.73Z"/><path class="cls-1" d="M134.72,33.33a10.51,10.51,0,0,1-9,10.45,1.48,1.48,0,0,1-1.61-1.54V40.19a2,2,0,0,1,1.54-1.87,5.07,5.07,0,0,0,2.18-1.3,5,5,0,0,0,1.54-3.71c0-.07,0-1,0-1.08-.08-.3-.31-.55-.59-.41a10.66,10.66,0,0,1-4.65,1.06,10.6,10.6,0,0,1-10.62-10.59V13.34a1.65,1.65,0,0,1,1.65-1.66h2.13a1.65,1.65,0,0,1,1.65,1.66v9A5.07,5.07,0,0,0,120.43,26a5,5,0,0,0,3.69,1.55,5.26,5.26,0,0,0,5.24-5.27v-9A1.66,1.66,0,0,1,131,11.68h2a1.65,1.65,0,0,1,1.65,1.66Z"/><path class="cls-2" d="M33.18,14.77a10.25,10.25,0,0,0-7.51-3.09A10.18,10.18,0,0,0,19,14.08a1.25,1.25,0,0,1-1.61,0,10.16,10.16,0,0,0-6.72-2.4,10.27,10.27,0,0,0-7.51,3.09A10.1,10.1,0,0,0,0,22.24V30.6a1.65,1.65,0,0,0,1.65,1.65H3.7A1.65,1.65,0,0,0,5.35,30.6V22.22a5,5,0,0,1,1.55-3.7A5.12,5.12,0,0,1,10.64,17a5.08,5.08,0,0,1,3.7,1.55,5,5,0,0,1,1.55,3.68V30.6a1.65,1.65,0,0,0,1.65,1.65h2.05a1.65,1.65,0,0,0,1.65-1.65V20.31a2.27,2.27,0,0,1,.41-1.41A4.9,4.9,0,0,1,25.72,17,5.22,5.22,0,0,1,31,22.22V30.6a1.65,1.65,0,0,0,1.65,1.65h2a1.64,1.64,0,0,0,1.64-1.65V22.24A10.1,10.1,0,0,0,33.18,14.77Z"/><polygon class="cls-1" points="145.33 15.58 145.11 15.58 144.57 15.58 144.34 15.58 144.34 15.36 144.34 13.55 143.58 15.44 143.53 15.58 143.37 15.58 143.05 15.58 142.9 15.58 142.85 15.44 142.11 13.58 142.11 15.36 142.11 15.58 141.89 15.58 141.34 15.58 141.12 15.58 141.12 15.36 141.12 11.91 141.12 11.69 141.34 11.69 142.22 11.69 142.38 11.69 142.43 11.83 143.22 13.75 144.03 11.82 144.09 11.68 144.24 11.68 145.11 11.69 145.33 11.69 145.33 11.91 145.33 15.36 145.33 15.58 145.33 15.58"/><polygon class="cls-1" points="139.17 15.58 138.94 15.58 138.34 15.58 138.11 15.58 138.11 15.36 138.11 12.62 137.24 12.62 137.02 12.62 137.02 12.4 137.02 11.91 137.02 11.69 137.24 11.69 140.04 11.69 140.26 11.69 140.26 11.91 140.26 12.4 140.26 12.62 140.04 12.62 139.17 12.62 139.17 15.36 139.17 15.58 139.17 15.58"/><polygon class="cls-1" points="140.03 12.4 138.94 12.4 138.94 15.36 138.34 15.36 138.34 12.4 137.24 12.4 137.24 11.91 140.03 11.91 140.03 12.4"/><polygon class="cls-1" points="145.11 15.36 144.57 15.36 144.57 12.4 143.37 15.36 143.05 15.36 141.89 12.4 141.89 15.36 141.34 15.36 141.34 11.91 142.22 11.91 143.21 14.33 144.23 11.91 145.11 11.91 145.11 15.36"/><path class="cls-3" d="M23.44,2.36a4.93,4.93,0,0,0-3.31,1.82,5.57,5.57,0,0,0-1.3,3.76V9.75c0,.05.09-.06.11-.12a7.28,7.28,0,0,1,6-4.08s0,.06,0,.08C24.2,6.08,21.2,8.05,20.7,11c0,.06.07.1.13.07a11.9,11.9,0,0,1,2.59-.83C26.71,9.88,29,9,29.79,4.71L30.08,2c0-.08,0-.13-.13-.13Z"/><path class="cls-3" d="M14.62,4.93A3.5,3.5,0,0,1,17,6.22a3.91,3.91,0,0,1,.92,2.66v1.24s-.06,0-.08,0a5.17,5.17,0,0,0-4.24-2.89s0,0,0,.06c.53.31,2.59,1.66,3,3.71,0,.09-.09.14-.18.1a8.14,8.14,0,0,0-1.73-.53c-2.32-.27-4-.91-4.5-3.93l-.2-1.86a.11.11,0,0,1,.12-.13Z"/></g></g></svg>