<svg width="36" height="36" viewBox="0 0 24 24" fill="none" xmlns="http://www.w3.org/2000/svg">
<path d="M16.0687 7.58309C15.2991 7.66744 14.5537 7.90214 13.8753 8.27376C13.1969 8.64539 12.5987 9.14664 12.1149 9.74884C11.0621 10.999 10.5092 12.5921 10.5621 14.2232V16.377C10.5621 16.4365 10.6696 16.3056 10.6935 16.2342C11.3576 14.8713 12.3689 13.7057 13.6265 12.8538C14.8841 12.0018 16.3439 11.4934 17.8604 11.3791C17.8604 11.3791 17.8604 11.4505 17.8604 11.4743C16.9765 12.0098 13.393 14.354 12.7958 17.8645C12.7958 17.9359 12.8794 17.9835 12.951 17.9478C13.941 17.5018 14.979 17.1705 16.0448 16.9601C19.9746 16.5317 22.71 15.4845 23.6537 10.3795L24.0001 7.1547C24.0001 7.0595 24.0001 7 23.8448 7L16.0687 7.58309Z" fill="#7CC143"/>
<path d="M5.53282 10.6412C6.08526 10.6962 6.62117 10.8603 7.10927 11.1239C7.59738 11.3874 8.0279 11.7452 8.37571 12.1763C9.12373 13.0589 9.51544 14.1872 9.47464 15.3416V16.8172C9.47464 16.8172 9.40297 16.8172 9.37908 16.8172C8.90836 15.8544 8.19352 15.0307 7.30526 14.4275C6.41699 13.8244 5.38607 13.4627 4.31444 13.3782C4.31444 13.3782 4.31444 13.3782 4.31444 13.4496C4.94752 13.8185 7.40817 15.4249 7.89791 17.8644C7.89791 17.9715 7.79041 18.031 7.6829 17.9834C7.01975 17.6973 6.32664 17.4858 5.61644 17.3527C2.84522 17.0314 0.838479 16.2698 0.241234 12.6761L0.00233612 10.4627C-0.00152262 10.4426 -0.000590738 10.4219 0.00505528 10.4022C0.0107013 10.3825 0.0209044 10.3644 0.0348453 10.3494C0.0487862 10.3343 0.0660761 10.3227 0.0853246 10.3156C0.104573 10.3084 0.125243 10.3058 0.145675 10.308L5.53282 10.6412Z" fill="#7CC143"/>
</svg>
