<svg width="45" height="60" viewBox="0 0 86 117" fill="none" xmlns="http://www.w3.org/2000/svg">
<path d="M53.1629 1.38486C51.3351 1.58519 49.565 2.14261 47.9537 3.02522C46.3424 3.90783 44.9217 5.09831 43.7727 6.52853C41.2722 9.49764 39.9591 13.2813 40.0847 17.155V22.2704C40.0847 22.4117 40.3401 22.1008 40.3968 21.9313C41.9741 18.6943 44.376 15.9261 47.3628 13.9027C50.3495 11.8794 53.8167 10.6718 57.4183 10.4004C57.4183 10.4004 57.4183 10.57 57.4183 10.6265C55.319 11.8983 46.8082 17.4659 45.3898 25.8032C45.3898 25.9727 45.5883 26.0858 45.7586 26.001C48.1097 24.9419 50.575 24.1549 53.1062 23.6553C62.4396 22.6378 68.9361 20.1508 71.1773 8.02641L72 0.367435C72 0.14134 72 3.05176e-05 71.6312 3.05176e-05L53.1629 1.38486Z" fill="#7CC143"/>
<path d="M28.1405 8.64791C29.4525 8.77854 30.7253 9.1682 31.8845 9.79416C33.0438 10.4201 34.0663 11.2698 34.8923 12.2937C36.6689 14.3899 37.5992 17.0696 37.5023 19.8114V23.3158C37.5023 23.3158 37.332 23.3158 37.2753 23.3158C36.1574 21.0292 34.4596 19.0729 32.35 17.6404C30.2404 16.2079 27.7919 15.3489 25.2468 15.1482C25.2468 15.1482 25.2468 15.1482 25.2468 15.3177C26.7504 16.1938 32.5944 20.0092 33.7575 25.8029C33.7575 26.0573 33.5022 26.1986 33.2469 26.0855C31.6719 25.4061 30.0258 24.9037 28.339 24.5876C21.7574 23.8246 16.9914 22.0158 15.5729 13.4807L15.0055 8.22398C14.9964 8.17622 14.9986 8.12698 15.012 8.08022C15.0254 8.03346 15.0496 7.99049 15.0828 7.95475C15.1159 7.91902 15.1569 7.89152 15.2026 7.87447C15.2484 7.85742 15.2975 7.85129 15.346 7.85658L28.1405 8.64791Z" fill="#7CC143"/>
<circle cx="43" cy="73.375" r="43" fill="#EB3526"/>
<circle cx="43" cy="73.375" r="33" fill="white"/>
<ellipse cx="23.5" cy="71.875" rx="5.5" ry="7.5" fill="#EB3526"/>
<ellipse cx="20.5" cy="67.375" rx="2.5" ry="3" fill="white"/>
<ellipse cx="62.5" cy="71.875" rx="5.5" ry="7.5" fill="#EB3526"/>
<ellipse cx="59.5" cy="67.375" rx="2.5" ry="3" fill="white"/>
<path d="M52 88.375C52 90.7619 51.0518 93.0511 49.364 94.739C47.6761 96.4268 45.3869 97.375 43 97.375C40.6131 97.375 38.3239 96.4268 36.636 94.739C34.9482 93.0511 34 90.7619 34 88.375H37.06C37.06 89.9504 37.6858 91.4612 38.7998 92.5752C39.9138 93.6892 41.4246 94.315 43 94.315C44.5754 94.315 46.0862 93.6892 47.2002 92.5752C48.3142 91.4612 48.94 89.9504 48.94 88.375H52Z" fill="#EB3526"/>
</svg>
