<svg width="42" height="44" viewBox="0 0 42 44" fill="none" xmlns="http://www.w3.org/2000/svg">
<g id="Frame 2608174">
<ellipse id="Ellipse 13" cx="21" cy="40" rx="21" ry="4" fill="url(#paint0_radial_168_153)"/>
<circle id="Ellipse 16" cx="21" cy="20" r="20" fill="#FCEDDF"/>
<path id="Vector" d="M9.5 19.9999C9.5 24.7088 12.3317 28.7542 16.3837 30.5328C16.3514 29.7298 16.378 28.7658 16.5839 27.8921C16.805 26.9585 18.0636 21.6258 18.0636 21.6258C18.0636 21.6258 17.6962 20.8915 17.6962 19.8063C17.6962 18.1021 18.684 16.8294 19.9141 16.8294C20.9602 16.8294 21.4655 17.615 21.4655 18.5558C21.4655 19.6073 20.7948 21.1802 20.4499 22.637C20.1618 23.8568 21.0616 24.8518 22.265 24.8518C24.4439 24.8518 25.9114 22.0534 25.9114 18.7377C25.9114 16.2173 24.2138 14.3308 21.1262 14.3308C17.6377 14.3308 15.4645 16.9322 15.4645 19.8381C15.4645 20.84 15.7599 21.5465 16.2226 22.0936C16.4354 22.3449 16.4649 22.446 16.3879 22.7345C16.3328 22.9461 16.2061 23.4555 16.1536 23.6574C16.0771 23.9487 15.8411 24.0528 15.5778 23.9452C13.9711 23.2893 13.2228 21.5298 13.2228 19.5518C13.2228 16.2851 15.9779 12.368 21.4418 12.368C25.8325 12.368 28.7223 15.5452 28.7223 18.9556C28.7223 23.4668 26.2142 26.8371 22.5171 26.8371C21.2756 26.8371 20.1077 26.1659 19.7076 25.4036C19.7076 25.4036 19.04 28.0532 18.8986 28.5649C18.6548 29.4515 18.1775 30.3377 17.7412 31.0284C18.7993 31.3413 19.897 31.5001 21.0004 31.5C27.3509 31.5 32.5 26.3513 32.5 19.9999C32.5 13.6487 27.3509 8.5 21.0004 8.5C14.6493 8.5 9.5 13.6487 9.5 19.9999Z" fill="#972716"/>
</g>
<defs>
<radialGradient id="paint0_radial_168_153" cx="0" cy="0" r="1" gradientUnits="userSpaceOnUse" gradientTransform="translate(21 40) rotate(90) scale(4 21.916)">
<stop stop-color="#333333"/>
<stop offset="1" stop-color="#333333" stop-opacity="0"/>
</radialGradient>
</defs>
</svg>
