<svg width="42" height="34" viewBox="0 0 42 34" fill="none" xmlns="http://www.w3.org/2000/svg">
<g id="pinterest">
<ellipse id="Ellipse 13" cx="21" cy="30" rx="21" ry="4" fill="url(#paint0_radial_112_39)"/>
<g id="Group 2154">
<circle id="Ellipse 12" cx="21" cy="16" r="16" fill="white"/>
<path id="Vector" d="M5 16.0002C5 22.552 8.93975 28.1805 14.5774 30.6551C14.5324 29.5379 14.5694 28.1966 14.8559 26.981C15.1635 25.6821 16.9146 18.2625 16.9146 18.2625C16.9146 18.2625 16.4035 17.2409 16.4035 15.731C16.4035 13.3599 17.7778 11.589 19.4893 11.589C20.9446 11.589 21.6478 12.6821 21.6478 13.9911C21.6478 15.4541 20.7146 17.6425 20.2347 19.6694C19.8339 21.3666 21.0857 22.751 22.7601 22.751C25.7916 22.751 27.8334 18.8574 27.8334 14.2441C27.8334 10.7374 25.4715 8.11263 21.1756 8.11263C16.3221 8.11263 13.2985 11.7321 13.2985 15.7751C13.2985 17.1691 13.7095 18.1521 14.3532 18.9134C14.6493 19.263 14.6904 19.4036 14.5833 19.8051C14.5065 20.0995 14.3302 20.8083 14.2572 21.0891C14.1508 21.4944 13.8224 21.6393 13.4561 21.4896C11.2206 20.577 10.1795 18.1289 10.1795 15.3769C10.1795 10.8317 14.0127 5.38175 21.6147 5.38175C27.7235 5.38175 31.7441 9.80225 31.7441 14.5474C31.7441 20.824 28.2546 25.5131 23.1109 25.5131C21.3835 25.5131 19.7586 24.5794 19.202 23.5187C19.202 23.5187 18.2731 27.2052 18.0764 27.9171C17.7371 29.1508 17.0731 30.3837 16.466 31.3447C17.9382 31.78 19.4654 32.001 21.0006 32.0009C29.8361 32.0009 37.0001 24.8372 37.0001 16.0002C37.0001 7.16362 29.8361 0 21.0006 0C12.1643 0 5 7.16362 5 16.0002Z" fill="#CB1F27"/>
</g>
</g>
<defs>
<radialGradient id="paint0_radial_112_39" cx="0" cy="0" r="1" gradientUnits="userSpaceOnUse" gradientTransform="translate(21 30) rotate(90) scale(4 21.916)">
<stop stop-color="#111111"/>
<stop offset="1" stop-color="#111111" stop-opacity="0"/>
</radialGradient>
</defs>
</svg>
