<svg width="338" height="93" viewBox="0 0 338 93" fill="none" xmlns="http://www.w3.org/2000/svg">
<g clip-path="url(#clip0_97_35)">
<path d="M16.4 63.8C12.2 63.8 6.89998 62.4 1.39998 60C0.699976 59.7 0.399976 49.5 -2.4138e-05 46.6C-0.100024 46 0.799976 46 0.999976 46.4C4.49998 57.6 9.89997 61.8 18.4 61.8C24.9 61.8 29.4 57.8 29.4 50C29.4 34.3 2.19998 35.2 2.19998 19.4C2.19998 10.8 8.69998 4 20.2 4C24.4 4 27.4 4.8 31.6 7C32.3 7.3 32.3 14.9 32.6 17.8C32.7 18.4 31.8 18.4 31.7 18C29.1 10.3 24.7 5.9 17.9 5.9C12.7 5.9 8.49998 9.1 8.49998 16.2C8.49998 30.4 35.7 28.8 35.7 48C35.6 56.5 28.8 63.8 16.4 63.8Z" fill="#C9C0BD"/>
<path d="M86 62.3C82.3 62.3 81 62.4 78.6 62.5C78.2 62.6 78 61.8 78.7 61.6C80.5 61.2 81.2 61.3 82.1 60.7C83.1 60.2 83.5 54.3 83.1 37.7C83 33.8 80.6 31.9 76.1 31.9C72.5 31.9 70.3 33.3 68.2 35.7C67.6 36.4 67.4 36.9 67.4 37.8V38.5C67.4 57.3 67.8 60.5 68.4 60.8C69.4 61.4 70.4 61.3 72.2 61.7C72.8 61.9 72.7 62.7 72.3 62.6C70.3 62.4 68.5 62.4 64.5 62.4C60.8 62.4 59.5 62.5 57.1 62.6C56.7 62.7 56.5 61.9 57.2 61.7C59 61.3 59.7 61.4 60.6 60.8C61.5 60.3 62 55.6 61.6 39C61.4 33.6 59.1 31.7 54.6 31.7C51 31.7 48.8 33.4 46.7 35.7C46.1 36.4 45.9 36.8 45.9 37.8L46.1 45.6C46.3 59.5 46.4 60.5 47.1 60.9C48.1 61.5 48.7 61.4 50.5 61.8C51.1 62 51 62.8 50.6 62.7C48.3 62.5 46.9 62.5 43.2 62.5C39.2 62.5 36.9 62.6 34.9 62.7C34.5 62.8 34.3 62 35 61.8C36.8 61.4 38.4 61.5 39.4 60.9C40 60.6 40.4 59.5 40.4 45.6C40.4 36 40.2 35 39.4 34.2C38.7 33.6 37.7 33.2 35.8 33.1C35.2 33 35.4 32.5 35.7 32.4C39.5 31.3 42.3 28.5 44.9 26.5C45.4 26.1 45.8 26.6 45.8 26.9C45.6 27.9 45.3 31.8 45.2 34.7C45.2 34.9 45.8 35.1 45.9 34.9C49.7 30.8 53.7 27.8 58.2 27.8C63 27.8 65.6 30.5 66.8 34.3C66.9 34.6 67.4 34.7 67.5 34.6C71.4 30.7 75.2 28.1 79.7 28.1C86.6 28.1 88.9 32.2 88.9 37.8C88.9 56.6 89.2 60.5 89.9 60.8C90.9 61.4 92.5 61.3 94.3 61.7C94.9 61.9 94.8 62.7 94.4 62.6C92.2 62.3 90 62.3 86 62.3Z" fill="#C9C0BD"/>
<path d="M98.8 62.3C94.8 62.3 92.6 62.4 90.5 62.5C90.1 62.6 89.9 61.8 90.6 61.6C92.4 61.2 94 61.3 95 60.7C95.6 60.4 96 59.3 96 45.4C96 35.8 95.8 34.3 95 33.5C94.3 32.8 93.3 32.3 91.5 32C90.9 31.8 91 31.4 91.3 31.3C95.1 30.6 98.6 28.1 101.1 26.3C101.6 26 102.1 26.5 102 26.9C101.7 27.9 101.8 30.8 101.8 33.7L101.6 45.5C101.4 59.4 101.9 60.4 102.6 60.8C103.5 61.4 105.2 61.3 106.9 61.7C107.5 61.9 107.4 62.7 107 62.6C104.8 62.3 102.5 62.3 98.8 62.3ZM98.2 14C96.1 14 94.4 12.6 94.4 10.6C94.4 8.19999 96.5 6.39999 98.7 6.39999C100.8 6.39999 102.2 7.89999 102.2 10.1C102.3 12.2 100.6 14 98.2 14Z" fill="#C9C0BD"/>
<path d="M119.4 63.2C112.3 63.2 110.9 58.6 110.9 53.4C110.9 46.8 111.1 34.6 111.1 32C108.6 31.9 106.5 31.8 104.5 32C104.1 32 104.1 30.5 104.7 30.3C110 29 114 25.3 116.3 20.8C116.6 20.2 117.7 20.7 117.7 21C117.6 22 117.3 25.2 117.2 28.1C117.2 28.3 117.4 28.6 117.9 28.6C123.5 28.6 125.4 28.4 128.4 28.3C129.2 28.2 129.3 32.3 128.2 32.2C125.2 32 122.4 31.9 116.8 31.9C116.8 35.7 116.6 46.1 116.6 52.3C116.6 57.3 117.8 60.4 122 60.4C124.5 60.4 126.6 59.8 128.4 58.4C128.7 58.2 129 58.9 128.9 59C127 61.3 122.6 63.2 119.4 63.2Z" fill="#C9C0BD"/>
<path d="M157.4 62.3C153.6 62.3 151.9 62.4 149.6 62.5C149.2 62.6 149.1 61.8 149.7 61.6C151.5 61.2 152.6 61.3 153.5 60.7C154.4 60.2 154.9 55.5 154.5 38.9C154.3 33.5 150.9 31.6 146.3 31.6C142.7 31.6 140 33.3 137.9 35.6C137.3 36.3 137.1 36.7 137.1 37.7V45.5C137.1 59.3 137.4 60.4 138.1 60.8C139.1 61.4 140.1 61.3 141.9 61.7C142.5 61.9 142.4 62.7 142 62.6C139.7 62.4 137.9 62.4 134.2 62.4C130.2 62.4 127.9 62.5 125.8 62.6C125.5 62.7 125.3 61.9 125.9 61.7C127.7 61.3 129.3 61.4 130.3 60.8C130.9 60.5 131.3 59.3 131.3 32.7C131.3 10.5 131.1 6.3 130.3 5.8C129.6 5.3 128.2 5 126.4 4.8C125.8 4.7 125.9 4.2 126.2 4.1C130 3.5 134.4 2 137.1 0.200002C137.6 -0.0999984 138 0.400002 137.9 0.800002C137.4 2.5 137.3 5.6 137.3 6.5L137.1 34C137.1 34.3 137.7 34.4 137.7 34.3C141.5 30.1 145.4 27.7 149.9 27.7C156.7 27.7 160.1 32.3 160.1 38.9C160.1 57.7 160.5 60.4 161.1 60.7C162.1 61.3 163.7 61.2 165.5 61.6C166.1 61.8 166 62.6 165.6 62.5C163.6 62.3 161.3 62.3 157.4 62.3Z" fill="#C9C0BD"/>
<path d="M172.4 63.2C169.8 63.2 165.5 62 164 61.1C163.3 60.6 162.5 56.4 162.3 52.9C162.3 52.3 163.2 52.3 163.3 52.7C164.2 56.5 169.1 61.5 173.2 61.5C177.3 61.5 179.8 59 179.8 54.9C179.8 46.7 163.5 47.1 163.5 37.8C163.5 32 168.3 27.6 175.1 27.6C177.2 27.6 180.9 28.2 182.1 28.9C182.8 29.3 183.1 33.4 183.1 36.3C183.1 36.9 182.2 36.9 182.1 36.5C181.6 33.5 177.6 29.3 174.1 29.3C170.6 29.3 168.7 31.5 168.7 34.7C168.7 43.1 185.2 41.9 185.2 52.5C185.2 58.6 180 63.2 172.4 63.2Z" fill="#C9C0BD"/>
<path d="M203.6 63.2C191.8 63.2 186 54.4 186 45.2C186 35.8 193 27.7 203.3 27.7C215.1 27.7 221 36.5 221 45.8C220.9 55.1 214 63.2 203.6 63.2ZM202.9 29.1C196.7 29.1 192.3 35.8 192.3 44.6C192.3 53.9 196.8 62 204.1 62C210.4 62 214.7 55.3 214.7 46.5C214.7 37.1 210.2 29.1 202.9 29.1Z" fill="#C9C0BD"/>
<path d="M249.6 62.3C245.9 62.3 244.2 62.4 241.8 62.5C241.4 62.6 241.2 61.8 241.9 61.6C243.7 61.2 244.8 61.3 245.7 60.7C246.6 60.2 247.1 55.5 246.7 38.9C246.5 33.5 243.7 31.6 239.1 31.6C235.5 31.6 233.3 33.3 231.2 35.6C230.6 36.3 230.4 36.7 230.4 37.7L230.6 45.5C230.8 59.4 230.9 60.4 231.6 60.8C232.6 61.4 233.9 61.3 235.7 61.7C236.3 61.9 236.2 62.7 235.9 62.6C233.3 62.4 231.3 62.4 227.8 62.4C223.8 62.4 221.5 62.5 219.5 62.6C219.1 62.7 218.9 61.9 219.6 61.7C221.4 61.3 223 61.4 224 60.8C224.6 60.5 225 59.4 225 45.5C225 35.9 224.8 34.9 224 34.1C223.3 33.5 222.3 33.1 220.4 33C219.8 32.9 219.9 32.4 220.3 32.3C224.1 31.2 226.9 28.4 229.5 26.4C230 26 230.4 26.5 230.4 26.8C230.2 27.8 229.9 31.7 229.8 34.6C229.8 34.8 230.4 35 230.5 34.8C234.3 30.7 238.3 27.7 242.8 27.7C249.7 27.7 252.6 32.3 252.6 38.9C252.6 57.7 252.9 60.4 253.6 60.7C254.6 61.3 256.2 61.2 258 61.6C258.6 61.8 258.5 62.6 258.1 62.5C255.8 62.3 253.6 62.3 249.6 62.3Z" fill="#C9C0BD"/>
<path d="M263.5 62.3C259.5 62.3 257.3 62.4 255.2 62.5C254.8 62.6 254.6 61.8 255.3 61.6C257.1 61.2 258.7 61.3 259.7 60.7C260.3 60.4 260.7 59.3 260.7 45.4C260.7 35.8 260.5 34.3 259.7 33.5C259 32.8 258 32.3 256.2 32C255.6 31.8 255.7 31.4 256 31.3C259.8 30.6 263.3 28.1 265.8 26.3C266.3 26 266.8 26.5 266.7 26.9C266.4 27.9 266.5 30.8 266.5 33.7L266.3 45.5C266.1 59.4 266.6 60.4 267.3 60.8C268.2 61.4 269.9 61.3 271.6 61.7C272.2 61.9 272.1 62.7 271.7 62.6C269.5 62.3 267.1 62.3 263.5 62.3ZM262.9 14C260.8 14 259.1 12.6 259.1 10.6C259.1 8.19999 261.2 6.39999 263.4 6.39999C265.5 6.39999 266.9 7.89999 266.9 10.1C267 12.2 265.3 14 262.9 14Z" fill="#C9C0BD"/>
<path d="M294.9 63.2C292.4 63.2 291 61 290.1 58.8C289.9 58.6 289.6 58.5 289.4 58.7C287 60.8 283.3 63.3 278.8 63.3C274.8 63.3 271.3 60.3 271.3 56.8C271.3 49.8 278.3 47.6 289.7 43.7C290.4 43.5 290.5 43.1 290.6 41.9C290.6 41 290.6 38.6 290.6 37.7C290.6 31.7 288.6 29.5 284.5 29.5C281.2 29.5 279.2 31.9 279 35.5C278.8 39.2 277.5 40.3 275.2 40.3C273.6 40.3 272.6 39.3 272.6 37.7C272.8 33.6 280 27.8 286.3 27.8C292.7 27.8 296.3 31.1 296.3 37.8C296.3 44 295.6 50.4 295.6 56.4C295.6 58.6 296.6 60 298.2 60C299.6 60 300.1 59.8 301.1 59C301.4 58.8 301.8 59.2 301.7 59.4C300.8 61.2 297.7 63.2 294.9 63.2ZM289.7 45.1C281.4 47.5 277.1 50.3 277.1 54.8C277.1 58.6 278.9 60 282.3 60C286.1 60 289.7 56.8 289.8 55.9C290.1 53.4 290.3 47.5 290.3 45.6C290.3 45.3 290.1 45.1 289.7 45.1Z" fill="#C9C0BD"/>
<path d="M329.3 62.3C325.6 62.3 323.9 62.4 321.5 62.5C321.1 62.6 320.9 61.8 321.6 61.6C323.4 61.2 324.5 61.3 325.4 60.7C326.3 60.2 326.8 55.5 326.4 38.9C326.2 33.5 323.4 31.6 318.8 31.6C315.2 31.6 313 33.3 310.9 35.6C310.3 36.3 310.1 36.7 310.1 37.7L310.3 45.5C310.5 59.4 310.6 60.4 311.3 60.8C312.3 61.4 313.6 61.3 315.4 61.7C316 61.9 315.9 62.7 315.6 62.6C313 62.4 311 62.4 307.5 62.4C303.5 62.4 301.2 62.5 299.2 62.6C298.8 62.7 298.6 61.9 299.3 61.7C301.1 61.3 302.7 61.4 303.7 60.8C304.3 60.5 304.7 59.4 304.7 45.5C304.7 35.9 304.5 34.9 303.7 34.1C303 33.5 302 33.1 300.1 33C299.5 32.9 299.6 32.4 300 32.3C303.8 31.2 306.6 28.4 309.2 26.4C309.7 26 310.1 26.5 310.1 26.8C309.9 27.8 309.6 31.7 309.5 34.6C309.5 34.8 310.1 35 310.2 34.8C314 30.7 318 27.7 322.5 27.7C329.4 27.7 332.3 32.3 332.3 38.9C332.3 57.7 332.6 60.4 333.3 60.7C334.3 61.3 335.9 61.2 337.7 61.6C338.3 61.8 338.2 62.6 337.8 62.5C335.5 62.3 333.3 62.3 329.3 62.3Z" fill="#C9C0BD"/>
<path d="M114.9 73.7C114.6 73.8 114.4 74 114.2 74.3C114.1 74.6 114 75.1 114 75.8V89.4C114 90.1 114.1 90.6 114.2 90.9C114.3 91.2 114.5 91.4 114.9 91.5C115.2 91.6 115.7 91.7 116.4 91.7V92.2C115.5 92.1 114.2 92.1 112.7 92.1C111 92.1 109.8 92.1 108.9 92.2V91.7C109.6 91.7 110.1 91.6 110.4 91.5C110.7 91.4 110.9 91.2 111.1 90.9C111.2 90.6 111.3 90.1 111.3 89.4V74.7L104.2 92.4H103.7L96.3 74.7V89.1C96.3 89.8 96.4 90.3 96.5 90.7C96.6 91.1 96.9 91.3 97.3 91.5C97.7 91.7 98.2 91.7 99 91.8V92.3C98.3 92.2 97.3 92.2 96 92.2C94.8 92.2 93.9 92.2 93.3 92.3V91.8C94 91.8 94.5 91.7 94.8 91.5C95.1 91.3 95.4 91.1 95.5 90.7C95.6 90.3 95.7 89.8 95.7 89.1V75.8C95.7 75.1 95.6 74.6 95.5 74.3C95.4 74 95.2 73.8 94.8 73.7C94.5 73.6 94 73.5 93.3 73.5V73C94 73 94.9 73 96.1 73C97.1 73 98 73 98.6 72.9L105.1 88.8L111.4 73H112.8C114.4 73 115.6 73 116.5 72.9V73.4C115.8 73.5 115.3 73.6 114.9 73.7Z" fill="#C9C0BD"/>
<path d="M137.2 91.7V92.2C136.4 92.1 135.3 92.1 134 92.1C132.3 92.1 131.1 92.1 130.2 92.2V91.7C130.9 91.7 131.5 91.6 131.8 91.4C132.1 91.3 132.3 91 132.3 90.6C132.3 90.3 132.2 89.9 132 89.3L130.2 84.8H123.1L121.9 87.7C121.5 88.6 121.3 89.4 121.3 89.9C121.3 90.5 121.5 90.9 121.9 91.1C122.3 91.3 123 91.5 123.8 91.5V92C122.7 91.9 121.6 91.9 120.4 91.9C119.5 91.9 118.8 91.9 118.2 92V91.5C119.2 91.3 119.9 90.5 120.5 89.1L127.4 72.5H127.9L135.1 89.7C135.6 91.1 136.3 91.7 137.2 91.7ZM126.7 76.2L123.3 84.4H130L126.7 76.2Z" fill="#C9C0BD"/>
<path d="M154.8 91.2C154.7 90.9 154.5 90.7 154.2 90.7C154.1 90.7 154 90.7 153.8 90.8C153.7 90.9 153.5 91 153.2 91.2C152.5 91.7 151.8 92.1 151.1 92.3C150.4 92.5 149.5 92.7 148.6 92.7C146.6 92.7 144.9 92.3 143.4 91.5C142 90.7 140.9 89.6 140.1 88.1C139.3 86.6 139 84.9 139 82.9C139 80.8 139.4 79 140.2 77.4C141 75.8 142.1 74.6 143.6 73.8C145 73 146.7 72.5 148.5 72.5C149.3 72.5 150 72.6 150.6 72.7C151.2 72.9 151.8 73.1 152.2 73.3C152.7 73.5 153.2 73.9 153.8 74.2C154 74.4 154.2 74.5 154.4 74.5C154.8 74.5 155 73.9 155.1 72.8H155.8C155.7 74 155.7 76.1 155.7 79.1H155C154.8 78.1 154.6 77.3 154.4 76.7C154.2 76.1 153.9 75.5 153.5 75.1C152.9 74.4 152.2 73.9 151.3 73.5C150.4 73.1 149.4 72.9 148.4 72.9C147.1 72.9 146 73.3 145 74.1C144 74.9 143.3 76 142.7 77.4C142.2 78.8 141.9 80.5 141.9 82.5C141.9 84.7 142.2 86.5 142.7 87.9C143.2 89.3 144 90.3 145 91C146 91.7 147.3 92 149 92C150.2 92 151.2 91.7 152.1 91.1C152.5 90.9 152.7 90.7 152.8 90.5C152.9 90.3 153 90 153 89.6V87C153 86.2 152.9 85.7 152.8 85.3C152.6 84.9 152.4 84.7 152 84.6C151.6 84.5 151 84.4 150.1 84.4V84C151.1 84.1 152.5 84.1 154.3 84.1C155.7 84.1 156.7 84.1 157.4 84V84.5C156.9 84.5 156.6 84.6 156.4 84.7C156.2 84.8 156.1 85 156 85.3C155.9 85.6 155.9 86.1 155.9 86.8V92.2H155C155 91.9 154.9 91.5 154.8 91.2Z" fill="#C9C0BD"/>
<path d="M177.6 91.7V92.2C176.8 92.1 175.7 92.1 174.4 92.1C172.7 92.1 171.5 92.1 170.6 92.2V91.7C171.3 91.7 171.9 91.6 172.2 91.4C172.5 91.3 172.7 91 172.7 90.6C172.7 90.3 172.6 89.9 172.4 89.3L170.6 84.8H163.5L162.3 87.7C161.9 88.6 161.7 89.4 161.7 89.9C161.7 90.5 161.9 90.9 162.3 91.1C162.7 91.3 163.4 91.5 164.2 91.5V92C163.1 91.9 162 91.9 160.8 91.9C159.9 91.9 159.2 91.9 158.6 92V91.5C159.6 91.3 160.3 90.5 160.9 89.1L167.8 72.5H168.3L175.5 89.7C176 91.1 176.7 91.7 177.6 91.7ZM167.1 76.2L163.7 84.4H170.4L167.1 76.2Z" fill="#C9C0BD"/>
<path d="M182.1 91.6H188.3C189.5 91.6 190.5 91.4 191.1 91.1C191.7 90.8 192.2 90.3 192.5 89.6C192.8 88.9 193 87.9 193.2 86.5H193.9C193.8 87.2 193.8 87.9 193.8 88.7C193.8 89.6 193.9 90.8 194 92.2C192.5 92.1 190.1 92.1 186.7 92.1C183.3 92.1 180.9 92.1 179.4 92.2V91.7L191.7 73.5H185.5C184.3 73.5 183.3 73.7 182.7 74C182.1 74.3 181.6 74.8 181.3 75.5C181 76.2 180.8 77.2 180.6 78.6H179.9C180 78 180 77.3 180 76.4C180 75.4 179.9 74.2 179.8 72.9C181.2 73 183.7 73 187.1 73C190.4 73 192.8 73 194.2 72.9V73.4L182.1 91.6Z" fill="#C9C0BD"/>
<path d="M203.5 73.7C203.2 73.8 203 74 202.8 74.3C202.7 74.6 202.6 75.1 202.6 75.8V89.4C202.6 90.1 202.7 90.6 202.8 90.9C202.9 91.2 203.1 91.4 203.5 91.5C203.8 91.6 204.3 91.7 205 91.7V92.2C204.1 92.1 202.9 92.1 201.3 92.1C199.6 92.1 198.4 92.1 197.5 92.2V91.7C198.2 91.7 198.7 91.6 199 91.5C199.3 91.4 199.5 91.2 199.7 90.9C199.8 90.6 199.9 90.1 199.9 89.4V75.8C199.9 75.1 199.8 74.6 199.7 74.3C199.6 74 199.4 73.8 199 73.7C198.7 73.6 198.2 73.5 197.5 73.5V73C198.3 73.1 199.6 73.1 201.3 73.1C202.9 73.1 204.1 73.1 205 73V73.5C204.3 73.5 203.8 73.6 203.5 73.7Z" fill="#C9C0BD"/>
<path d="M225.2 73.7C224.9 73.9 224.6 74.1 224.5 74.5C224.4 74.9 224.3 75.4 224.3 76.1V92.4H223.6L211.2 74.7V89.1C211.2 89.8 211.3 90.3 211.4 90.7C211.5 91.1 211.8 91.3 212.2 91.5C212.6 91.7 213.1 91.7 213.9 91.8V92.3C213.2 92.2 212.2 92.2 210.9 92.2C209.7 92.2 208.8 92.2 208.2 92.3V91.8C208.9 91.8 209.4 91.7 209.7 91.5C210 91.3 210.3 91.1 210.4 90.7C210.5 90.3 210.6 89.8 210.6 89.1V75.8C210.6 75.1 210.5 74.6 210.4 74.3C210.3 74 210.1 73.8 209.7 73.7C209.4 73.6 208.9 73.5 208.2 73.5V73C208.8 73.1 209.8 73.1 210.9 73.1C211.8 73.1 212.5 73.1 213.2 73L223.6 87.9V76.1C223.6 75.4 223.5 74.9 223.4 74.5C223.3 74.1 223 73.9 222.6 73.7C222.2 73.5 221.7 73.5 220.9 73.4V72.9C221.6 73 222.6 73 223.9 73C225.1 73 226 73 226.6 72.9V73.4C226 73.5 225.5 73.6 225.2 73.7Z" fill="#C9C0BD"/>
<path d="M244.8 88.8C244.8 89.8 244.9 91 245 92.3C243.7 92.2 241.4 92.2 238.3 92.2C234.5 92.2 231.7 92.2 229.8 92.3V91.8C230.5 91.8 231 91.7 231.3 91.6C231.6 91.5 231.8 91.3 232 91C232.1 90.7 232.2 90.2 232.2 89.5V75.8C232.2 75.1 232.1 74.6 232 74.3C231.9 74 231.7 73.8 231.3 73.7C231 73.6 230.5 73.5 229.8 73.5V73C231.7 73.1 234.6 73.1 238.3 73.1C241.2 73.1 243.2 73.1 244.4 73C244.3 74.2 244.2 75.3 244.2 76.2C244.2 76.9 244.2 77.5 244.3 77.9H243.6C243.5 76.7 243.3 75.8 243.1 75.3C242.9 74.7 242.5 74.3 242 74C241.5 73.7 240.7 73.6 239.7 73.6H237.3C236.6 73.6 236.1 73.7 235.8 73.8C235.5 73.9 235.3 74.1 235.1 74.4C235 74.7 234.9 75.2 234.9 75.9V82.4H236.9C237.9 82.4 238.5 82.1 238.9 81.6C239.2 81.1 239.4 80.5 239.5 79.9C239.6 79.3 239.6 79 239.7 78.8H240.4C240.3 79.7 240.3 80.6 240.3 81.4V82.7C240.3 83.6 240.4 84.9 240.5 86.6H239.8C239.8 86.5 239.7 86 239.6 85.3C239.5 84.5 239.2 84 238.8 83.6C238.4 83.2 237.7 83 236.9 83H234.9V89.6C234.9 90.3 235 90.8 235.1 91.1C235.2 91.4 235.4 91.6 235.8 91.7C236.1 91.8 236.6 91.9 237.3 91.9H239.5C240.7 91.9 241.7 91.7 242.3 91.4C242.9 91.1 243.4 90.6 243.7 89.9C244 89.2 244.2 88.3 244.4 87H245.1C244.8 87.3 244.8 87.9 244.8 88.8Z" fill="#C9C0BD"/>
</g>
<defs>
<clipPath id="clip0_97_35">
<rect width="337.9" height="92.3" fill="white"/>
</clipPath>
</defs>
</svg>
