<svg width="46" height="35" viewBox="0 0 46 35" fill="none" xmlns="http://www.w3.org/2000/svg">
<g id="youtube">
<ellipse id="Ellipse 13" cx="23" cy="31" rx="23" ry="4" fill="url(#paint0_radial_112_41)"/>
<path id="Vector" d="M41.1617 9.07133C40.9437 8.28436 40.5184 7.56691 39.9283 6.99043C39.3382 6.41396 38.6038 5.99858 37.7983 5.78566C34.8491 5 22.9808 5 22.9808 5C22.9808 5 11.112 5.02384 8.16332 5.8095C7.35782 6.02245 6.62348 6.43785 6.03342 7.01432C5.44336 7.59079 5.01817 8.30823 4.8002 9.09518C3.90817 14.2144 3.56209 22.0145 4.8246 26.9287C5.04258 27.7156 5.46776 28.433 6.05782 29.0095C6.64788 29.586 7.38223 30.0014 8.18772 30.2143C11.1367 31 23.0052 31 23.0052 31C23.0052 31 34.8738 31 37.8227 30.2143C38.6282 30.0014 39.3626 29.586 39.9526 29.0095C40.5427 28.433 40.9679 27.7156 41.1858 26.9287C42.1264 21.8024 42.4165 14.0071 41.1614 9.07156L41.1617 9.07133Z" fill="#FF0000"/>
<path id="Vector_2" d="M20 24L27 18.0001L20 12V24Z" fill="white"/>
</g>
<defs>
<radialGradient id="paint0_radial_112_41" cx="0" cy="0" r="1" gradientUnits="userSpaceOnUse" gradientTransform="translate(23 31) rotate(90) scale(4 24.0032)">
<stop stop-color="#111111"/>
<stop offset="1" stop-color="#111111" stop-opacity="0"/>
</radialGradient>
</defs>
</svg>
