<svg width="42" height="42" viewBox="0 0 32 32" fill="none" xmlns="http://www.w3.org/2000/svg">
<g id="youtube">
<path id="Vector" d="M30.3382 8.28839C30.1661 7.65275 29.8303 7.07327 29.3645 6.60766C28.8986 6.14204 28.3188 5.80654 27.6829 5.63457C25.3546 5 15.9849 5 15.9849 5C15.9849 5 6.61477 5.01926 4.28683 5.65383C3.65091 5.82583 3.07117 6.16134 2.60533 6.62695C2.13949 7.09256 1.80382 7.67203 1.63173 8.30764C0.927501 12.4424 0.654285 18.7424 1.651 22.7116C1.82309 23.3472 2.15876 23.9267 2.6246 24.3923C3.09043 24.8579 3.67018 25.1934 4.3061 25.3654C6.63421 26 16.0041 26 16.0041 26C16.0041 26 25.374 26 27.7021 25.3654C28.3381 25.1934 28.9178 24.8579 29.3836 24.3923C29.8495 23.9267 30.1852 23.3472 30.3572 22.7116C31.0998 18.5711 31.3288 12.275 30.338 8.28857L30.3382 8.28839Z" fill="#FF0000"/>
<path id="Vector_2" d="M13 20L20 15.5001L13 11V20Z" fill="white"/>
</g>
</svg>
