<svg width="42" height="44" viewBox="0 0 42 44" fill="none" xmlns="http://www.w3.org/2000/svg">
<g id="Frame 2608173">
<ellipse id="Ellipse 13" cx="21" cy="40" rx="21" ry="4" fill="url(#paint0_radial_168_152)"/>
<circle id="Ellipse 17" cx="21" cy="20" r="20" fill="#FCEDDF"/>
<path id="Vector" d="M18.6 23.6429L24.828 20L18.6 16.3571V23.6429ZM32.472 14.135C32.628 14.7057 32.736 15.4707 32.808 16.4421C32.892 17.4136 32.928 18.2514 32.928 18.98L33 20C33 22.6593 32.808 24.6143 32.472 25.865C32.172 26.9579 31.476 27.6621 30.396 27.9657C29.832 28.1236 28.8 28.2329 27.216 28.3057C25.656 28.3907 24.228 28.4271 22.908 28.4271L21 28.5C15.972 28.5 12.84 28.3057 11.604 27.9657C10.524 27.6621 9.828 26.9579 9.528 25.865C9.372 25.2943 9.264 24.5293 9.192 23.5579C9.108 22.5864 9.072 21.7486 9.072 21.02L9 20C9 17.3407 9.192 15.3857 9.528 14.135C9.828 13.0421 10.524 12.3379 11.604 12.0343C12.168 11.8764 13.2 11.7671 14.784 11.6943C16.344 11.6093 17.772 11.5729 19.092 11.5729L21 11.5C26.028 11.5 29.16 11.6943 30.396 12.0343C31.476 12.3379 32.172 13.0421 32.472 14.135Z" fill="#972716"/>
</g>
<defs>
<radialGradient id="paint0_radial_168_152" cx="0" cy="0" r="1" gradientUnits="userSpaceOnUse" gradientTransform="translate(21 40) rotate(90) scale(4 21.916)">
<stop stop-color="#333333"/>
<stop offset="1" stop-color="#333333" stop-opacity="0"/>
</radialGradient>
</defs>
</svg>
